<mxfile host="app.diagrams.net" modified="2023-05-17T01:12:41.296Z" agent="Mozilla/5.0 (Windows NT 10.0; Win64; x64) AppleWebKit/537.36 (KHTML, like Gecko) Chrome/113.0.0.0 Safari/537.36" etag="gltoxCVI6G7gYYQqemJ9" version="21.3.2" type="google" pages="13">
  <diagram name="E1" id="M0zWmL_jnLsyUgjwpJR4">
    <mxGraphModel grid="1" page="1" gridSize="10" guides="1" tooltips="1" connect="1" arrows="1" fold="1" pageScale="1" pageWidth="850" pageHeight="1100" math="0" shadow="0">
      <root>
        <mxCell id="0" />
        <mxCell id="1" parent="0" />
        <mxCell id="OQjvyck503ejKRu6HDTY-1" value="&lt;h1&gt;Ejercicio 1&lt;/h1&gt;&lt;p&gt;&lt;/p&gt;&lt;div&gt;1) Hacer un programa para mostrar por pantalla los números del 1 al 10.&lt;br&gt;&lt;/div&gt;&lt;div&gt;Importante: El programa no tiene ningún ingreso de datos.&lt;/div&gt;" style="text;html=1;strokeColor=none;fillColor=none;spacing=5;spacingTop=-20;whiteSpace=wrap;overflow=hidden;rounded=0;" vertex="1" parent="1">
          <mxGeometry x="10" y="10" width="790" height="110" as="geometry" />
        </mxCell>
        <mxCell id="OQjvyck503ejKRu6HDTY-2" value="Programación I - Guia 4 - Ciclos&lt;br&gt;&lt;div style=&quot;text-align: left;&quot;&gt;&lt;span style=&quot;background-color: initial;&quot;&gt;Facundo Masino&lt;/span&gt;&lt;/div&gt;" style="text;html=1;strokeColor=none;fillColor=none;align=center;verticalAlign=middle;whiteSpace=wrap;rounded=0;fontSize=11;fontFamily=Helvetica;fontColor=default;" vertex="1" parent="1">
          <mxGeometry x="658" y="11" width="160" height="30" as="geometry" />
        </mxCell>
        <mxCell id="OQjvyck503ejKRu6HDTY-13" value="" style="edgeStyle=orthogonalEdgeStyle;shape=connector;rounded=0;orthogonalLoop=1;jettySize=auto;html=1;labelBackgroundColor=default;strokeColor=default;fontFamily=Helvetica;fontSize=11;fontColor=default;endArrow=none;endFill=0;" edge="1" parent="1" source="OQjvyck503ejKRu6HDTY-3" target="OQjvyck503ejKRu6HDTY-12">
          <mxGeometry relative="1" as="geometry" />
        </mxCell>
        <mxCell id="OQjvyck503ejKRu6HDTY-15" value="" style="edgeStyle=orthogonalEdgeStyle;shape=connector;rounded=0;orthogonalLoop=1;jettySize=auto;html=1;labelBackgroundColor=default;strokeColor=default;fontFamily=Helvetica;fontSize=11;fontColor=default;endArrow=none;endFill=0;" edge="1" parent="1" source="OQjvyck503ejKRu6HDTY-3" target="OQjvyck503ejKRu6HDTY-14">
          <mxGeometry relative="1" as="geometry" />
        </mxCell>
        <mxCell id="OQjvyck503ejKRu6HDTY-3" value="N &amp;lt;= 10" style="swimlane;whiteSpace=wrap;html=1;swimlaneLine=1;container=0;" vertex="1" parent="1">
          <mxGeometry x="180" y="330" width="440" height="360" as="geometry">
            <mxRectangle x="180" y="190" width="140" height="30" as="alternateBounds" />
          </mxGeometry>
        </mxCell>
        <mxCell id="OQjvyck503ejKRu6HDTY-9" style="edgeStyle=orthogonalEdgeStyle;shape=connector;rounded=0;orthogonalLoop=1;jettySize=auto;html=1;entryX=0.5;entryY=0;entryDx=0;entryDy=0;labelBackgroundColor=default;strokeColor=default;fontFamily=Helvetica;fontSize=11;fontColor=default;endArrow=none;endFill=0;" edge="1" parent="OQjvyck503ejKRu6HDTY-3" source="OQjvyck503ejKRu6HDTY-5" target="OQjvyck503ejKRu6HDTY-7">
          <mxGeometry relative="1" as="geometry" />
        </mxCell>
        <mxCell id="OQjvyck503ejKRu6HDTY-5" value="N" style="shape=trapezoid;perimeter=trapezoidPerimeter;whiteSpace=wrap;html=1;fixedSize=1;" vertex="1" parent="OQjvyck503ejKRu6HDTY-3">
          <mxGeometry x="135" y="120" width="170" height="40" as="geometry" />
        </mxCell>
        <mxCell id="OQjvyck503ejKRu6HDTY-7" value="N++" style="rounded=0;whiteSpace=wrap;html=1;fontFamily=Helvetica;fontSize=11;fontColor=default;" vertex="1" parent="OQjvyck503ejKRu6HDTY-3">
          <mxGeometry x="160" y="220" width="120" height="40" as="geometry" />
        </mxCell>
        <mxCell id="OQjvyck503ejKRu6HDTY-12" value="N = 1" style="whiteSpace=wrap;html=1;fontStyle=1;startSize=23;" vertex="1" parent="1">
          <mxGeometry x="340" y="260" width="120" height="40" as="geometry" />
        </mxCell>
        <mxCell id="OQjvyck503ejKRu6HDTY-14" value="FIN" style="ellipse;whiteSpace=wrap;html=1;fontStyle=1;startSize=23;" vertex="1" parent="1">
          <mxGeometry x="360" y="750" width="80" height="80" as="geometry" />
        </mxCell>
        <mxCell id="OQjvyck503ejKRu6HDTY-25" style="edgeStyle=orthogonalEdgeStyle;shape=connector;rounded=0;orthogonalLoop=1;jettySize=auto;html=1;entryX=0.5;entryY=0;entryDx=0;entryDy=0;labelBackgroundColor=default;strokeColor=default;fontFamily=Helvetica;fontSize=11;fontColor=default;endArrow=none;endFill=0;" edge="1" parent="1" source="OQjvyck503ejKRu6HDTY-24" target="OQjvyck503ejKRu6HDTY-12">
          <mxGeometry relative="1" as="geometry" />
        </mxCell>
        <mxCell id="OQjvyck503ejKRu6HDTY-24" value="INICIO" style="ellipse;whiteSpace=wrap;html=1;aspect=fixed;fontFamily=Helvetica;fontSize=11;fontColor=default;" vertex="1" parent="1">
          <mxGeometry x="360" y="150" width="80" height="80" as="geometry" />
        </mxCell>
      </root>
    </mxGraphModel>
  </diagram>
  <diagram name="E2" id="qT4NjUbN7p1608c8jsgF">
    <mxGraphModel grid="1" page="1" gridSize="10" guides="1" tooltips="1" connect="1" arrows="1" fold="1" pageScale="1" pageWidth="850" pageHeight="1100" math="0" shadow="0">
      <root>
        <mxCell id="DbIDH_O8RyOAouP6UMZX-0" />
        <mxCell id="DbIDH_O8RyOAouP6UMZX-1" parent="DbIDH_O8RyOAouP6UMZX-0" />
        <mxCell id="DbIDH_O8RyOAouP6UMZX-2" value="&lt;h1&gt;Ejercicio 2&amp;nbsp;&lt;/h1&gt;2) Hacer un programa para mostrar por pantalla los números del 1 al 20 salteando de a 3&lt;br&gt;elementos. Es decir: 1, 4, 7, 10, 13, 16, 19.&lt;br&gt;Importante: El programa no tiene ningún ingreso de datos." style="text;html=1;strokeColor=none;fillColor=none;spacing=5;spacingTop=-20;whiteSpace=wrap;overflow=hidden;rounded=0;" vertex="1" parent="DbIDH_O8RyOAouP6UMZX-1">
          <mxGeometry x="10" y="10" width="790" height="110" as="geometry" />
        </mxCell>
        <mxCell id="DbIDH_O8RyOAouP6UMZX-3" value="Programación I - Guia 4 - Ciclos&lt;br&gt;&lt;div style=&quot;text-align: left;&quot;&gt;&lt;span style=&quot;background-color: initial;&quot;&gt;Facundo Masino&lt;/span&gt;&lt;/div&gt;" style="text;html=1;strokeColor=none;fillColor=none;align=center;verticalAlign=middle;whiteSpace=wrap;rounded=0;fontSize=11;fontFamily=Helvetica;fontColor=default;" vertex="1" parent="DbIDH_O8RyOAouP6UMZX-1">
          <mxGeometry x="658" y="11" width="160" height="30" as="geometry" />
        </mxCell>
        <mxCell id="DbIDH_O8RyOAouP6UMZX-4" value="" style="edgeStyle=orthogonalEdgeStyle;shape=connector;rounded=0;orthogonalLoop=1;jettySize=auto;html=1;labelBackgroundColor=default;strokeColor=default;fontFamily=Helvetica;fontSize=11;fontColor=default;endArrow=none;endFill=0;" edge="1" parent="DbIDH_O8RyOAouP6UMZX-1" source="DbIDH_O8RyOAouP6UMZX-6" target="DbIDH_O8RyOAouP6UMZX-10">
          <mxGeometry relative="1" as="geometry" />
        </mxCell>
        <mxCell id="DbIDH_O8RyOAouP6UMZX-5" value="" style="edgeStyle=orthogonalEdgeStyle;shape=connector;rounded=0;orthogonalLoop=1;jettySize=auto;html=1;labelBackgroundColor=default;strokeColor=default;fontFamily=Helvetica;fontSize=11;fontColor=default;endArrow=none;endFill=0;" edge="1" parent="DbIDH_O8RyOAouP6UMZX-1" source="DbIDH_O8RyOAouP6UMZX-6" target="DbIDH_O8RyOAouP6UMZX-11">
          <mxGeometry relative="1" as="geometry" />
        </mxCell>
        <mxCell id="DbIDH_O8RyOAouP6UMZX-6" value="N &amp;lt;= 20" style="swimlane;whiteSpace=wrap;html=1;swimlaneLine=1;container=0;" vertex="1" parent="DbIDH_O8RyOAouP6UMZX-1">
          <mxGeometry x="180" y="330" width="440" height="360" as="geometry">
            <mxRectangle x="180" y="190" width="140" height="30" as="alternateBounds" />
          </mxGeometry>
        </mxCell>
        <mxCell id="DbIDH_O8RyOAouP6UMZX-7" style="edgeStyle=orthogonalEdgeStyle;shape=connector;rounded=0;orthogonalLoop=1;jettySize=auto;html=1;entryX=0.5;entryY=0;entryDx=0;entryDy=0;labelBackgroundColor=default;strokeColor=default;fontFamily=Helvetica;fontSize=11;fontColor=default;endArrow=none;endFill=0;" edge="1" parent="DbIDH_O8RyOAouP6UMZX-6" source="DbIDH_O8RyOAouP6UMZX-8" target="DbIDH_O8RyOAouP6UMZX-9">
          <mxGeometry relative="1" as="geometry" />
        </mxCell>
        <mxCell id="DbIDH_O8RyOAouP6UMZX-8" value="N" style="shape=trapezoid;perimeter=trapezoidPerimeter;whiteSpace=wrap;html=1;fixedSize=1;" vertex="1" parent="DbIDH_O8RyOAouP6UMZX-6">
          <mxGeometry x="135" y="120" width="170" height="40" as="geometry" />
        </mxCell>
        <mxCell id="DbIDH_O8RyOAouP6UMZX-9" value="N+=3" style="rounded=0;whiteSpace=wrap;html=1;fontFamily=Helvetica;fontSize=11;fontColor=default;" vertex="1" parent="DbIDH_O8RyOAouP6UMZX-6">
          <mxGeometry x="160" y="220" width="120" height="40" as="geometry" />
        </mxCell>
        <mxCell id="DbIDH_O8RyOAouP6UMZX-10" value="N = 1" style="whiteSpace=wrap;html=1;fontStyle=1;startSize=23;" vertex="1" parent="DbIDH_O8RyOAouP6UMZX-1">
          <mxGeometry x="340" y="260" width="120" height="40" as="geometry" />
        </mxCell>
        <mxCell id="DbIDH_O8RyOAouP6UMZX-11" value="FIN" style="ellipse;whiteSpace=wrap;html=1;fontStyle=1;startSize=23;" vertex="1" parent="DbIDH_O8RyOAouP6UMZX-1">
          <mxGeometry x="360" y="750" width="80" height="80" as="geometry" />
        </mxCell>
        <mxCell id="DbIDH_O8RyOAouP6UMZX-12" style="edgeStyle=orthogonalEdgeStyle;shape=connector;rounded=0;orthogonalLoop=1;jettySize=auto;html=1;entryX=0.5;entryY=0;entryDx=0;entryDy=0;labelBackgroundColor=default;strokeColor=default;fontFamily=Helvetica;fontSize=11;fontColor=default;endArrow=none;endFill=0;" edge="1" parent="DbIDH_O8RyOAouP6UMZX-1" source="DbIDH_O8RyOAouP6UMZX-13" target="DbIDH_O8RyOAouP6UMZX-10">
          <mxGeometry relative="1" as="geometry" />
        </mxCell>
        <mxCell id="DbIDH_O8RyOAouP6UMZX-13" value="INICIO" style="ellipse;whiteSpace=wrap;html=1;aspect=fixed;fontFamily=Helvetica;fontSize=11;fontColor=default;" vertex="1" parent="DbIDH_O8RyOAouP6UMZX-1">
          <mxGeometry x="360" y="150" width="80" height="80" as="geometry" />
        </mxCell>
      </root>
    </mxGraphModel>
  </diagram>
  <diagram name="E3" id="EWJ1qLJ05cakYMngtnw3">
    <mxGraphModel grid="1" page="1" gridSize="10" guides="1" tooltips="1" connect="1" arrows="1" fold="1" pageScale="1" pageWidth="850" pageHeight="1100" math="0" shadow="0">
      <root>
        <mxCell id="HngVfg7UG2Gazu6SPEk2-0" />
        <mxCell id="HngVfg7UG2Gazu6SPEk2-1" parent="HngVfg7UG2Gazu6SPEk2-0" />
        <mxCell id="HngVfg7UG2Gazu6SPEk2-2" value="&lt;h1&gt;Ejercicio 3&amp;nbsp;&lt;/h1&gt;3) Hacer un programa para mostrar por pantalla los números del 20 al 1 en orden&lt;br&gt;decreciente.&lt;br&gt;Importante: El programa no tiene ningún ingreso de datos." style="text;html=1;strokeColor=none;fillColor=none;spacing=5;spacingTop=-20;whiteSpace=wrap;overflow=hidden;rounded=0;" parent="HngVfg7UG2Gazu6SPEk2-1" vertex="1">
          <mxGeometry x="10" y="10" width="790" height="100" as="geometry" />
        </mxCell>
        <mxCell id="HngVfg7UG2Gazu6SPEk2-3" value="Programación I - Guia 4 - Ciclos&lt;br&gt;&lt;div style=&quot;text-align: left;&quot;&gt;&lt;span style=&quot;background-color: initial;&quot;&gt;Facundo Masino&lt;/span&gt;&lt;/div&gt;" style="text;html=1;strokeColor=none;fillColor=none;align=center;verticalAlign=middle;whiteSpace=wrap;rounded=0;fontSize=11;fontFamily=Helvetica;fontColor=default;" parent="HngVfg7UG2Gazu6SPEk2-1" vertex="1">
          <mxGeometry x="658" y="11" width="160" height="30" as="geometry" />
        </mxCell>
        <mxCell id="HngVfg7UG2Gazu6SPEk2-4" value="" style="edgeStyle=orthogonalEdgeStyle;shape=connector;rounded=0;orthogonalLoop=1;jettySize=auto;html=1;labelBackgroundColor=default;strokeColor=default;fontFamily=Helvetica;fontSize=11;fontColor=default;endArrow=none;endFill=0;" parent="HngVfg7UG2Gazu6SPEk2-1" source="HngVfg7UG2Gazu6SPEk2-6" target="HngVfg7UG2Gazu6SPEk2-10" edge="1">
          <mxGeometry relative="1" as="geometry" />
        </mxCell>
        <mxCell id="HngVfg7UG2Gazu6SPEk2-5" value="" style="edgeStyle=orthogonalEdgeStyle;shape=connector;rounded=0;orthogonalLoop=1;jettySize=auto;html=1;labelBackgroundColor=default;strokeColor=default;fontFamily=Helvetica;fontSize=11;fontColor=default;endArrow=none;endFill=0;" parent="HngVfg7UG2Gazu6SPEk2-1" source="HngVfg7UG2Gazu6SPEk2-6" target="HngVfg7UG2Gazu6SPEk2-11" edge="1">
          <mxGeometry relative="1" as="geometry" />
        </mxCell>
        <mxCell id="HngVfg7UG2Gazu6SPEk2-6" value="N &amp;gt;= 1" style="swimlane;whiteSpace=wrap;html=1;swimlaneLine=1;container=0;" parent="HngVfg7UG2Gazu6SPEk2-1" vertex="1">
          <mxGeometry x="180" y="330" width="440" height="360" as="geometry">
            <mxRectangle x="180" y="190" width="140" height="30" as="alternateBounds" />
          </mxGeometry>
        </mxCell>
        <mxCell id="HngVfg7UG2Gazu6SPEk2-7" style="edgeStyle=orthogonalEdgeStyle;shape=connector;rounded=0;orthogonalLoop=1;jettySize=auto;html=1;entryX=0.5;entryY=0;entryDx=0;entryDy=0;labelBackgroundColor=default;strokeColor=default;fontFamily=Helvetica;fontSize=11;fontColor=default;endArrow=none;endFill=0;" parent="HngVfg7UG2Gazu6SPEk2-6" source="HngVfg7UG2Gazu6SPEk2-8" target="HngVfg7UG2Gazu6SPEk2-9" edge="1">
          <mxGeometry relative="1" as="geometry" />
        </mxCell>
        <mxCell id="HngVfg7UG2Gazu6SPEk2-8" value="N" style="shape=trapezoid;perimeter=trapezoidPerimeter;whiteSpace=wrap;html=1;fixedSize=1;" parent="HngVfg7UG2Gazu6SPEk2-6" vertex="1">
          <mxGeometry x="135" y="120" width="170" height="40" as="geometry" />
        </mxCell>
        <mxCell id="HngVfg7UG2Gazu6SPEk2-9" value="N--" style="rounded=0;whiteSpace=wrap;html=1;fontFamily=Helvetica;fontSize=11;fontColor=default;" parent="HngVfg7UG2Gazu6SPEk2-6" vertex="1">
          <mxGeometry x="160" y="220" width="120" height="40" as="geometry" />
        </mxCell>
        <mxCell id="HngVfg7UG2Gazu6SPEk2-10" value="N = 20" style="whiteSpace=wrap;html=1;fontStyle=1;startSize=23;" parent="HngVfg7UG2Gazu6SPEk2-1" vertex="1">
          <mxGeometry x="340" y="260" width="120" height="40" as="geometry" />
        </mxCell>
        <mxCell id="HngVfg7UG2Gazu6SPEk2-11" value="FIN" style="ellipse;whiteSpace=wrap;html=1;fontStyle=1;startSize=23;" parent="HngVfg7UG2Gazu6SPEk2-1" vertex="1">
          <mxGeometry x="360" y="750" width="80" height="80" as="geometry" />
        </mxCell>
        <mxCell id="HngVfg7UG2Gazu6SPEk2-12" style="edgeStyle=orthogonalEdgeStyle;shape=connector;rounded=0;orthogonalLoop=1;jettySize=auto;html=1;entryX=0.5;entryY=0;entryDx=0;entryDy=0;labelBackgroundColor=default;strokeColor=default;fontFamily=Helvetica;fontSize=11;fontColor=default;endArrow=none;endFill=0;" parent="HngVfg7UG2Gazu6SPEk2-1" source="HngVfg7UG2Gazu6SPEk2-13" target="HngVfg7UG2Gazu6SPEk2-10" edge="1">
          <mxGeometry relative="1" as="geometry" />
        </mxCell>
        <mxCell id="HngVfg7UG2Gazu6SPEk2-13" value="INICIO" style="ellipse;whiteSpace=wrap;html=1;aspect=fixed;fontFamily=Helvetica;fontSize=11;fontColor=default;" parent="HngVfg7UG2Gazu6SPEk2-1" vertex="1">
          <mxGeometry x="360" y="150" width="80" height="80" as="geometry" />
        </mxCell>
      </root>
    </mxGraphModel>
  </diagram>
  <diagram name="E4" id="EYIYdG5_HsyQsqqSq8dr">
    <mxGraphModel grid="1" page="1" gridSize="10" guides="1" tooltips="1" connect="1" arrows="1" fold="1" pageScale="1" pageWidth="850" pageHeight="1100" math="0" shadow="0">
      <root>
        <mxCell id="qBKubqmVT0XH-5P1K40X-0" />
        <mxCell id="qBKubqmVT0XH-5P1K40X-1" parent="qBKubqmVT0XH-5P1K40X-0" />
        <mxCell id="qBKubqmVT0XH-5P1K40X-2" value="&lt;h1&gt;Ejercicio 4&amp;nbsp;&lt;/h1&gt;4) Hacer un programa para que el usuario ingrese un número positivo y que luego se muestren por pantalla los números entre el 1 y el número ingresado por el usuario.&lt;br&gt;Ejemplo. Si el usuario ingresa 15, se mostrarán los números entre el 1 y el 15." style="text;html=1;strokeColor=none;fillColor=none;spacing=5;spacingTop=-20;whiteSpace=wrap;overflow=hidden;rounded=0;" parent="qBKubqmVT0XH-5P1K40X-1" vertex="1">
          <mxGeometry x="10" y="10" width="790" height="100" as="geometry" />
        </mxCell>
        <mxCell id="qBKubqmVT0XH-5P1K40X-3" value="Programación I - Guia 4 - Ciclos&lt;br&gt;&lt;div style=&quot;text-align: left;&quot;&gt;&lt;span style=&quot;background-color: initial;&quot;&gt;Facundo Masino&lt;/span&gt;&lt;/div&gt;" style="text;html=1;strokeColor=none;fillColor=none;align=center;verticalAlign=middle;whiteSpace=wrap;rounded=0;fontSize=11;fontFamily=Helvetica;fontColor=default;" parent="qBKubqmVT0XH-5P1K40X-1" vertex="1">
          <mxGeometry x="658" y="11" width="160" height="30" as="geometry" />
        </mxCell>
        <mxCell id="qBKubqmVT0XH-5P1K40X-4" value="" style="edgeStyle=orthogonalEdgeStyle;shape=connector;rounded=0;orthogonalLoop=1;jettySize=auto;html=1;labelBackgroundColor=default;strokeColor=default;fontFamily=Helvetica;fontSize=11;fontColor=default;endArrow=none;endFill=0;" parent="qBKubqmVT0XH-5P1K40X-1" source="qBKubqmVT0XH-5P1K40X-6" target="qBKubqmVT0XH-5P1K40X-10" edge="1">
          <mxGeometry relative="1" as="geometry" />
        </mxCell>
        <mxCell id="qBKubqmVT0XH-5P1K40X-5" value="" style="edgeStyle=orthogonalEdgeStyle;shape=connector;rounded=0;orthogonalLoop=1;jettySize=auto;html=1;labelBackgroundColor=default;strokeColor=default;fontFamily=Helvetica;fontSize=11;fontColor=default;endArrow=none;endFill=0;" parent="qBKubqmVT0XH-5P1K40X-1" source="qBKubqmVT0XH-5P1K40X-6" target="qBKubqmVT0XH-5P1K40X-11" edge="1">
          <mxGeometry relative="1" as="geometry" />
        </mxCell>
        <mxCell id="qBKubqmVT0XH-5P1K40X-6" value="acu &amp;lt;= N" style="swimlane;whiteSpace=wrap;html=1;swimlaneLine=1;container=0;" parent="qBKubqmVT0XH-5P1K40X-1" vertex="1">
          <mxGeometry x="180" y="330" width="440" height="360" as="geometry">
            <mxRectangle x="180" y="190" width="140" height="30" as="alternateBounds" />
          </mxGeometry>
        </mxCell>
        <mxCell id="qBKubqmVT0XH-5P1K40X-7" style="edgeStyle=orthogonalEdgeStyle;shape=connector;rounded=0;orthogonalLoop=1;jettySize=auto;html=1;entryX=0.5;entryY=0;entryDx=0;entryDy=0;labelBackgroundColor=default;strokeColor=default;fontFamily=Helvetica;fontSize=11;fontColor=default;endArrow=none;endFill=0;" parent="qBKubqmVT0XH-5P1K40X-6" source="qBKubqmVT0XH-5P1K40X-8" target="qBKubqmVT0XH-5P1K40X-9" edge="1">
          <mxGeometry relative="1" as="geometry" />
        </mxCell>
        <mxCell id="qBKubqmVT0XH-5P1K40X-8" value="acu" style="shape=trapezoid;perimeter=trapezoidPerimeter;whiteSpace=wrap;html=1;fixedSize=1;" parent="qBKubqmVT0XH-5P1K40X-6" vertex="1">
          <mxGeometry x="135" y="120" width="170" height="40" as="geometry" />
        </mxCell>
        <mxCell id="qBKubqmVT0XH-5P1K40X-9" value="acu++" style="rounded=0;whiteSpace=wrap;html=1;fontFamily=Helvetica;fontSize=11;fontColor=default;" parent="qBKubqmVT0XH-5P1K40X-6" vertex="1">
          <mxGeometry x="160" y="220" width="120" height="40" as="geometry" />
        </mxCell>
        <mxCell id="qBKubqmVT0XH-5P1K40X-10" value="acu = 1" style="whiteSpace=wrap;html=1;fontStyle=1;startSize=23;" parent="qBKubqmVT0XH-5P1K40X-1" vertex="1">
          <mxGeometry x="350" y="286" width="100" height="30" as="geometry" />
        </mxCell>
        <mxCell id="qBKubqmVT0XH-5P1K40X-11" value="FIN" style="ellipse;whiteSpace=wrap;html=1;fontStyle=1;startSize=23;" parent="qBKubqmVT0XH-5P1K40X-1" vertex="1">
          <mxGeometry x="360" y="750" width="80" height="80" as="geometry" />
        </mxCell>
        <mxCell id="qBKubqmVT0XH-5P1K40X-12" style="edgeStyle=orthogonalEdgeStyle;shape=connector;rounded=0;orthogonalLoop=1;jettySize=auto;html=1;entryX=0.5;entryY=0;entryDx=0;entryDy=0;labelBackgroundColor=default;strokeColor=default;fontFamily=Helvetica;fontSize=11;fontColor=default;endArrow=none;endFill=0;" parent="qBKubqmVT0XH-5P1K40X-1" source="qBKubqmVT0XH-5P1K40X-13" target="qBKubqmVT0XH-5P1K40X-10" edge="1">
          <mxGeometry relative="1" as="geometry" />
        </mxCell>
        <mxCell id="qBKubqmVT0XH-5P1K40X-13" value="INICIO" style="ellipse;whiteSpace=wrap;html=1;aspect=fixed;fontFamily=Helvetica;fontSize=11;fontColor=default;" parent="qBKubqmVT0XH-5P1K40X-1" vertex="1">
          <mxGeometry x="360" y="140" width="80" height="80" as="geometry" />
        </mxCell>
        <mxCell id="Hu3Rx0aCy4CzxPHLGPB1-0" value="N" style="shape=trapezoid;perimeter=trapezoidPerimeter;whiteSpace=wrap;html=1;fixedSize=1;direction=west;" vertex="1" parent="qBKubqmVT0XH-5P1K40X-1">
          <mxGeometry x="313" y="236" width="170" height="40" as="geometry" />
        </mxCell>
      </root>
    </mxGraphModel>
  </diagram>
  <diagram name="E5" id="IrX6vYyqDaS1hDugBXWa">
    <mxGraphModel grid="1" page="1" gridSize="10" guides="1" tooltips="1" connect="1" arrows="1" fold="1" pageScale="1" pageWidth="850" pageHeight="1100" math="0" shadow="0">
      <root>
        <mxCell id="XAe03uABRxKZYeSUgDGl-0" />
        <mxCell id="XAe03uABRxKZYeSUgDGl-1" parent="XAe03uABRxKZYeSUgDGl-0" />
        <mxCell id="XAe03uABRxKZYeSUgDGl-2" value="&lt;h1&gt;Ejercicio 5&amp;nbsp;&lt;/h1&gt;5) Hacer un programa para que el usuario ingrese dos números y luego el programa muestre por pantalla los números entre el menor y el mayor de ambos.&lt;br&gt;Ejemplo, si el usuario ingresa 3 y 15, se mostrarán los números entre el 3 y el 15; y si el&lt;br&gt;usuario ingresa 25 y 8, se mostrarán los números entre el 8 y el 25." style="text;html=1;strokeColor=none;fillColor=none;spacing=5;spacingTop=-20;whiteSpace=wrap;overflow=hidden;rounded=0;" parent="XAe03uABRxKZYeSUgDGl-1" vertex="1">
          <mxGeometry x="10" y="10" width="790" height="110" as="geometry" />
        </mxCell>
        <mxCell id="XAe03uABRxKZYeSUgDGl-3" value="Programación I - Guia 4 - Ciclos&lt;br&gt;&lt;div style=&quot;text-align: left;&quot;&gt;&lt;span style=&quot;background-color: initial;&quot;&gt;Facundo Masino&lt;/span&gt;&lt;/div&gt;" style="text;html=1;strokeColor=none;fillColor=none;align=center;verticalAlign=middle;whiteSpace=wrap;rounded=0;fontSize=11;fontFamily=Helvetica;fontColor=default;" parent="XAe03uABRxKZYeSUgDGl-1" vertex="1">
          <mxGeometry x="658" y="11" width="160" height="30" as="geometry" />
        </mxCell>
        <mxCell id="XAe03uABRxKZYeSUgDGl-5" value="" style="edgeStyle=orthogonalEdgeStyle;shape=connector;rounded=0;orthogonalLoop=1;jettySize=auto;html=1;labelBackgroundColor=default;strokeColor=default;fontFamily=Helvetica;fontSize=11;fontColor=default;endArrow=none;endFill=0;" parent="XAe03uABRxKZYeSUgDGl-1" source="XAe03uABRxKZYeSUgDGl-6" target="XAe03uABRxKZYeSUgDGl-11" edge="1">
          <mxGeometry relative="1" as="geometry" />
        </mxCell>
        <mxCell id="XAe03uABRxKZYeSUgDGl-6" value="acuMin &amp;lt; Max" style="swimlane;whiteSpace=wrap;html=1;swimlaneLine=1;container=0;" parent="XAe03uABRxKZYeSUgDGl-1" vertex="1">
          <mxGeometry x="178" y="460" width="440" height="360" as="geometry">
            <mxRectangle x="180" y="190" width="140" height="30" as="alternateBounds" />
          </mxGeometry>
        </mxCell>
        <mxCell id="XAe03uABRxKZYeSUgDGl-7" style="edgeStyle=orthogonalEdgeStyle;shape=connector;rounded=0;orthogonalLoop=1;jettySize=auto;html=1;entryX=0.5;entryY=0;entryDx=0;entryDy=0;labelBackgroundColor=default;strokeColor=default;fontFamily=Helvetica;fontSize=11;fontColor=default;endArrow=none;endFill=0;" parent="XAe03uABRxKZYeSUgDGl-6" source="XAe03uABRxKZYeSUgDGl-8" target="XAe03uABRxKZYeSUgDGl-9" edge="1">
          <mxGeometry relative="1" as="geometry" />
        </mxCell>
        <mxCell id="XAe03uABRxKZYeSUgDGl-8" value="acu" style="shape=trapezoid;perimeter=trapezoidPerimeter;whiteSpace=wrap;html=1;fixedSize=1;" parent="XAe03uABRxKZYeSUgDGl-6" vertex="1">
          <mxGeometry x="135" y="120" width="170" height="40" as="geometry" />
        </mxCell>
        <mxCell id="XAe03uABRxKZYeSUgDGl-9" value="acuMin++" style="rounded=0;whiteSpace=wrap;html=1;fontFamily=Helvetica;fontSize=11;fontColor=default;" parent="XAe03uABRxKZYeSUgDGl-6" vertex="1">
          <mxGeometry x="160" y="220" width="120" height="40" as="geometry" />
        </mxCell>
        <mxCell id="XAe03uABRxKZYeSUgDGl-11" value="FIN" style="ellipse;whiteSpace=wrap;html=1;fontStyle=1;startSize=23;" parent="XAe03uABRxKZYeSUgDGl-1" vertex="1">
          <mxGeometry x="358" y="880" width="80" height="80" as="geometry" />
        </mxCell>
        <mxCell id="dGC9vtbo5sy0XOBRaKKv-3" style="edgeStyle=orthogonalEdgeStyle;rounded=0;orthogonalLoop=1;jettySize=auto;html=1;entryX=0.488;entryY=1.15;entryDx=0;entryDy=0;entryPerimeter=0;endArrow=none;endFill=0;" edge="1" parent="XAe03uABRxKZYeSUgDGl-1" source="XAe03uABRxKZYeSUgDGl-13" target="XAe03uABRxKZYeSUgDGl-14">
          <mxGeometry relative="1" as="geometry" />
        </mxCell>
        <mxCell id="XAe03uABRxKZYeSUgDGl-13" value="INICIO" style="ellipse;whiteSpace=wrap;html=1;aspect=fixed;fontFamily=Helvetica;fontSize=11;fontColor=default;" parent="XAe03uABRxKZYeSUgDGl-1" vertex="1">
          <mxGeometry x="360" y="140" width="80" height="80" as="geometry" />
        </mxCell>
        <mxCell id="XAe03uABRxKZYeSUgDGl-14" value="A, B" style="shape=trapezoid;perimeter=trapezoidPerimeter;whiteSpace=wrap;html=1;fixedSize=1;direction=west;" parent="XAe03uABRxKZYeSUgDGl-1" vertex="1">
          <mxGeometry x="313" y="236" width="170" height="40" as="geometry" />
        </mxCell>
        <mxCell id="dGC9vtbo5sy0XOBRaKKv-7" style="edgeStyle=orthogonalEdgeStyle;shape=connector;rounded=0;orthogonalLoop=1;jettySize=auto;html=1;entryX=0.5;entryY=0;entryDx=0;entryDy=0;labelBackgroundColor=default;strokeColor=default;fontFamily=Helvetica;fontSize=11;fontColor=default;endArrow=none;endFill=0;" edge="1" parent="XAe03uABRxKZYeSUgDGl-1" source="dGC9vtbo5sy0XOBRaKKv-0" target="XAe03uABRxKZYeSUgDGl-14">
          <mxGeometry relative="1" as="geometry" />
        </mxCell>
        <mxCell id="dGC9vtbo5sy0XOBRaKKv-11" style="edgeStyle=orthogonalEdgeStyle;shape=connector;rounded=0;orthogonalLoop=1;jettySize=auto;html=1;entryX=0.5;entryY=0;entryDx=0;entryDy=0;labelBackgroundColor=default;strokeColor=default;fontFamily=Helvetica;fontSize=11;fontColor=default;endArrow=none;endFill=0;" edge="1" parent="XAe03uABRxKZYeSUgDGl-1" source="dGC9vtbo5sy0XOBRaKKv-10" target="XAe03uABRxKZYeSUgDGl-6">
          <mxGeometry relative="1" as="geometry" />
        </mxCell>
        <mxCell id="dGC9vtbo5sy0XOBRaKKv-10" value="" style="rounded=0;whiteSpace=wrap;html=1;fontFamily=Helvetica;fontSize=11;fontColor=default;" vertex="1" parent="XAe03uABRxKZYeSUgDGl-1">
          <mxGeometry x="315" y="330" width="165" height="90" as="geometry" />
        </mxCell>
        <mxCell id="dGC9vtbo5sy0XOBRaKKv-0" value="A &amp;gt; B" style="rhombus;whiteSpace=wrap;html=1;" vertex="1" parent="XAe03uABRxKZYeSUgDGl-1">
          <mxGeometry x="362" y="293" width="72" height="70" as="geometry" />
        </mxCell>
        <mxCell id="dGC9vtbo5sy0XOBRaKKv-8" value="Max = A" style="rounded=0;whiteSpace=wrap;html=1;fontFamily=Helvetica;fontSize=11;fontColor=default;" vertex="1" parent="XAe03uABRxKZYeSUgDGl-1">
          <mxGeometry x="280" y="350" width="70" height="27" as="geometry" />
        </mxCell>
        <mxCell id="dGC9vtbo5sy0XOBRaKKv-9" value="acuMin = B+1" style="rounded=0;whiteSpace=wrap;html=1;fontFamily=Helvetica;fontSize=11;fontColor=default;" vertex="1" parent="XAe03uABRxKZYeSUgDGl-1">
          <mxGeometry x="280" y="383" width="70" height="27" as="geometry" />
        </mxCell>
        <mxCell id="dGC9vtbo5sy0XOBRaKKv-12" value="acuMin = A+1" style="rounded=0;whiteSpace=wrap;html=1;fontFamily=Helvetica;fontSize=11;fontColor=default;" vertex="1" parent="XAe03uABRxKZYeSUgDGl-1">
          <mxGeometry x="440" y="350" width="70" height="27" as="geometry" />
        </mxCell>
        <mxCell id="dGC9vtbo5sy0XOBRaKKv-13" value="Max = B" style="rounded=0;whiteSpace=wrap;html=1;fontFamily=Helvetica;fontSize=11;fontColor=default;" vertex="1" parent="XAe03uABRxKZYeSUgDGl-1">
          <mxGeometry x="440" y="383" width="70" height="27" as="geometry" />
        </mxCell>
      </root>
    </mxGraphModel>
  </diagram>
  <diagram name="E6" id="psdW9CCicFdgqYjoQSA6">
    <mxGraphModel grid="1" page="1" gridSize="10" guides="1" tooltips="1" connect="1" arrows="1" fold="1" pageScale="1" pageWidth="850" pageHeight="1100" math="0" shadow="0">
      <root>
        <mxCell id="9pOBGxv44SYZjs8lSu6i-0" />
        <mxCell id="9pOBGxv44SYZjs8lSu6i-1" parent="9pOBGxv44SYZjs8lSu6i-0" />
        <mxCell id="9pOBGxv44SYZjs8lSu6i-5" value="N != 0" style="swimlane;whiteSpace=wrap;html=1;swimlaneLine=1;container=0;" vertex="1" parent="9pOBGxv44SYZjs8lSu6i-1">
          <mxGeometry x="178" y="445" width="440" height="360" as="geometry">
            <mxRectangle x="180" y="190" width="140" height="30" as="alternateBounds" />
          </mxGeometry>
        </mxCell>
        <mxCell id="TtlIdP021ePdqxU4D3pc-13" style="edgeStyle=orthogonalEdgeStyle;shape=connector;rounded=0;orthogonalLoop=1;jettySize=auto;html=1;entryX=0.5;entryY=1;entryDx=0;entryDy=0;labelBackgroundColor=default;strokeColor=default;fontFamily=Helvetica;fontSize=11;fontColor=default;endArrow=none;endFill=0;" edge="1" parent="9pOBGxv44SYZjs8lSu6i-5" source="TtlIdP021ePdqxU4D3pc-1" target="TtlIdP021ePdqxU4D3pc-12">
          <mxGeometry relative="1" as="geometry" />
        </mxCell>
        <mxCell id="TtlIdP021ePdqxU4D3pc-1" value="" style="rounded=0;whiteSpace=wrap;html=1;" vertex="1" parent="9pOBGxv44SYZjs8lSu6i-5">
          <mxGeometry x="127" y="110" width="190" height="120" as="geometry" />
        </mxCell>
        <mxCell id="TtlIdP021ePdqxU4D3pc-0" value="N &amp;gt; 0" style="rhombus;whiteSpace=wrap;html=1;" vertex="1" parent="9pOBGxv44SYZjs8lSu6i-5">
          <mxGeometry x="182" y="70" width="80" height="80" as="geometry" />
        </mxCell>
        <mxCell id="TtlIdP021ePdqxU4D3pc-10" value="pos++" style="rounded=0;whiteSpace=wrap;html=1;" vertex="1" parent="9pOBGxv44SYZjs8lSu6i-5">
          <mxGeometry x="91.5" y="155" width="87" height="30" as="geometry" />
        </mxCell>
        <mxCell id="TtlIdP021ePdqxU4D3pc-11" value="neg++" style="rounded=0;whiteSpace=wrap;html=1;" vertex="1" parent="9pOBGxv44SYZjs8lSu6i-5">
          <mxGeometry x="272" y="155" width="87" height="30" as="geometry" />
        </mxCell>
        <mxCell id="TtlIdP021ePdqxU4D3pc-12" value="N" style="shape=trapezoid;perimeter=trapezoidPerimeter;whiteSpace=wrap;html=1;fixedSize=1;direction=west;" vertex="1" parent="9pOBGxv44SYZjs8lSu6i-5">
          <mxGeometry x="137" y="275" width="170" height="40" as="geometry" />
        </mxCell>
        <mxCell id="9pOBGxv44SYZjs8lSu6i-2" value="&lt;h1&gt;Ejercicio 6&amp;nbsp;&lt;/h1&gt;6) Hacer un programa para ingresar una lista de números que finaliza cuando se ingresa un cero, luego informar cuántos son positivos y cuántos son negativos.&lt;br&gt;Ejemplo: 4, -3, 8, -5, 18, 20, 0. Se listará Positivos: 4 Negativos: 2." style="text;html=1;strokeColor=none;fillColor=none;spacing=5;spacingTop=-20;whiteSpace=wrap;overflow=hidden;rounded=0;" vertex="1" parent="9pOBGxv44SYZjs8lSu6i-1">
          <mxGeometry x="10" y="10" width="790" height="110" as="geometry" />
        </mxCell>
        <mxCell id="9pOBGxv44SYZjs8lSu6i-3" value="Programación I - Guia 4 - Ciclos&lt;br&gt;&lt;div style=&quot;text-align: left;&quot;&gt;&lt;span style=&quot;background-color: initial;&quot;&gt;Facundo Masino&lt;/span&gt;&lt;/div&gt;" style="text;html=1;strokeColor=none;fillColor=none;align=center;verticalAlign=middle;whiteSpace=wrap;rounded=0;fontSize=11;fontFamily=Helvetica;fontColor=default;" vertex="1" parent="9pOBGxv44SYZjs8lSu6i-1">
          <mxGeometry x="658" y="11" width="160" height="30" as="geometry" />
        </mxCell>
        <mxCell id="9pOBGxv44SYZjs8lSu6i-4" value="" style="edgeStyle=orthogonalEdgeStyle;shape=connector;rounded=0;orthogonalLoop=1;jettySize=auto;html=1;labelBackgroundColor=default;strokeColor=default;fontFamily=Helvetica;fontSize=11;fontColor=default;endArrow=none;endFill=0;" edge="1" parent="9pOBGxv44SYZjs8lSu6i-1" source="9pOBGxv44SYZjs8lSu6i-5" target="9pOBGxv44SYZjs8lSu6i-9">
          <mxGeometry relative="1" as="geometry" />
        </mxCell>
        <mxCell id="9pOBGxv44SYZjs8lSu6i-9" value="FIN" style="ellipse;whiteSpace=wrap;html=1;fontStyle=1;startSize=23;" vertex="1" parent="9pOBGxv44SYZjs8lSu6i-1">
          <mxGeometry x="358" y="920" width="80" height="80" as="geometry" />
        </mxCell>
        <mxCell id="9pOBGxv44SYZjs8lSu6i-11" value="INICIO" style="ellipse;whiteSpace=wrap;html=1;aspect=fixed;fontFamily=Helvetica;fontSize=11;fontColor=default;" vertex="1" parent="9pOBGxv44SYZjs8lSu6i-1">
          <mxGeometry x="358" y="160" width="80" height="80" as="geometry" />
        </mxCell>
        <mxCell id="TtlIdP021ePdqxU4D3pc-15" style="edgeStyle=orthogonalEdgeStyle;shape=connector;rounded=0;orthogonalLoop=1;jettySize=auto;html=1;entryX=0.5;entryY=1;entryDx=0;entryDy=0;labelBackgroundColor=default;strokeColor=default;fontFamily=Helvetica;fontSize=11;fontColor=default;endArrow=none;endFill=0;" edge="1" parent="9pOBGxv44SYZjs8lSu6i-1" source="9pOBGxv44SYZjs8lSu6i-12" target="9pOBGxv44SYZjs8lSu6i-11">
          <mxGeometry relative="1" as="geometry" />
        </mxCell>
        <mxCell id="9pOBGxv44SYZjs8lSu6i-12" value="N" style="shape=trapezoid;perimeter=trapezoidPerimeter;whiteSpace=wrap;html=1;fixedSize=1;direction=west;" vertex="1" parent="9pOBGxv44SYZjs8lSu6i-1">
          <mxGeometry x="313" y="280" width="170" height="40" as="geometry" />
        </mxCell>
        <mxCell id="TtlIdP021ePdqxU4D3pc-4" style="edgeStyle=orthogonalEdgeStyle;rounded=0;orthogonalLoop=1;jettySize=auto;html=1;entryX=0.5;entryY=0;entryDx=0;entryDy=0;endArrow=none;endFill=0;" edge="1" parent="9pOBGxv44SYZjs8lSu6i-1" source="TtlIdP021ePdqxU4D3pc-2" target="9pOBGxv44SYZjs8lSu6i-12">
          <mxGeometry relative="1" as="geometry" />
        </mxCell>
        <mxCell id="TtlIdP021ePdqxU4D3pc-2" value="pos = 0" style="rounded=0;whiteSpace=wrap;html=1;" vertex="1" parent="9pOBGxv44SYZjs8lSu6i-1">
          <mxGeometry x="356.5" y="340" width="87" height="30" as="geometry" />
        </mxCell>
        <mxCell id="TtlIdP021ePdqxU4D3pc-8" style="edgeStyle=orthogonalEdgeStyle;shape=connector;rounded=0;orthogonalLoop=1;jettySize=auto;html=1;entryX=0.5;entryY=1;entryDx=0;entryDy=0;labelBackgroundColor=default;strokeColor=default;fontFamily=Helvetica;fontSize=11;fontColor=default;endArrow=none;endFill=0;" edge="1" parent="9pOBGxv44SYZjs8lSu6i-1" source="TtlIdP021ePdqxU4D3pc-3" target="TtlIdP021ePdqxU4D3pc-2">
          <mxGeometry relative="1" as="geometry" />
        </mxCell>
        <mxCell id="TtlIdP021ePdqxU4D3pc-9" style="edgeStyle=orthogonalEdgeStyle;shape=connector;rounded=0;orthogonalLoop=1;jettySize=auto;html=1;entryX=0.5;entryY=0;entryDx=0;entryDy=0;labelBackgroundColor=default;strokeColor=default;fontFamily=Helvetica;fontSize=11;fontColor=default;endArrow=none;endFill=0;" edge="1" parent="9pOBGxv44SYZjs8lSu6i-1">
          <mxGeometry relative="1" as="geometry">
            <mxPoint x="402" y="420" as="sourcePoint" />
            <mxPoint x="400" y="445" as="targetPoint" />
          </mxGeometry>
        </mxCell>
        <mxCell id="TtlIdP021ePdqxU4D3pc-3" value="neg = 0" style="rounded=0;whiteSpace=wrap;html=1;" vertex="1" parent="9pOBGxv44SYZjs8lSu6i-1">
          <mxGeometry x="356.5" y="390" width="87" height="30" as="geometry" />
        </mxCell>
        <mxCell id="TtlIdP021ePdqxU4D3pc-14" value="&quot;Positivos: &quot;, pos, &quot; Negativos: &quot;, neg" style="shape=trapezoid;perimeter=trapezoidPerimeter;whiteSpace=wrap;html=1;fixedSize=1;direction=east;" vertex="1" parent="9pOBGxv44SYZjs8lSu6i-1">
          <mxGeometry x="286.5" y="840" width="227" height="40" as="geometry" />
        </mxCell>
      </root>
    </mxGraphModel>
  </diagram>
  <diagram name="E7" id="y05402kDZoCgtR21eQG8">
    <mxGraphModel grid="1" page="1" gridSize="10" guides="1" tooltips="1" connect="1" arrows="1" fold="1" pageScale="1" pageWidth="850" pageHeight="1100" math="0" shadow="0">
      <root>
        <mxCell id="rnwqKX7AX4xkAj5FHQGd-0" />
        <mxCell id="rnwqKX7AX4xkAj5FHQGd-1" parent="rnwqKX7AX4xkAj5FHQGd-0" />
        <mxCell id="rnwqKX7AX4xkAj5FHQGd-2" value="N != 0" style="swimlane;whiteSpace=wrap;html=1;swimlaneLine=1;container=0;" parent="rnwqKX7AX4xkAj5FHQGd-1" vertex="1">
          <mxGeometry x="177" y="445" width="440" height="360" as="geometry">
            <mxRectangle x="180" y="190" width="140" height="30" as="alternateBounds" />
          </mxGeometry>
        </mxCell>
        <mxCell id="rnwqKX7AX4xkAj5FHQGd-3" style="edgeStyle=orthogonalEdgeStyle;shape=connector;rounded=0;orthogonalLoop=1;jettySize=auto;html=1;entryX=0.5;entryY=1;entryDx=0;entryDy=0;labelBackgroundColor=default;strokeColor=default;fontFamily=Helvetica;fontSize=11;fontColor=default;endArrow=none;endFill=0;" parent="rnwqKX7AX4xkAj5FHQGd-2" source="rnwqKX7AX4xkAj5FHQGd-4" target="rnwqKX7AX4xkAj5FHQGd-8" edge="1">
          <mxGeometry relative="1" as="geometry" />
        </mxCell>
        <mxCell id="rnwqKX7AX4xkAj5FHQGd-4" value="" style="rounded=0;whiteSpace=wrap;html=1;" parent="rnwqKX7AX4xkAj5FHQGd-2" vertex="1">
          <mxGeometry x="127" y="110" width="190" height="120" as="geometry" />
        </mxCell>
        <mxCell id="rnwqKX7AX4xkAj5FHQGd-5" value="N &amp;gt; max&lt;br&gt;||&lt;br&gt;esPrimero" style="rhombus;whiteSpace=wrap;html=1;" parent="rnwqKX7AX4xkAj5FHQGd-2" vertex="1">
          <mxGeometry x="170" y="61" width="110" height="100" as="geometry" />
        </mxCell>
        <mxCell id="rnwqKX7AX4xkAj5FHQGd-6" value="max = N" style="rounded=0;whiteSpace=wrap;html=1;" parent="rnwqKX7AX4xkAj5FHQGd-2" vertex="1">
          <mxGeometry x="91.5" y="145" width="87" height="30" as="geometry" />
        </mxCell>
        <mxCell id="rnwqKX7AX4xkAj5FHQGd-8" value="N" style="shape=trapezoid;perimeter=trapezoidPerimeter;whiteSpace=wrap;html=1;fixedSize=1;direction=west;" parent="rnwqKX7AX4xkAj5FHQGd-2" vertex="1">
          <mxGeometry x="137" y="275" width="170" height="40" as="geometry" />
        </mxCell>
        <mxCell id="TtfuX4j2Dac6C414-Nk7-6" value="esPrimero = false" style="rounded=0;whiteSpace=wrap;html=1;" vertex="1" parent="rnwqKX7AX4xkAj5FHQGd-2">
          <mxGeometry x="91.5" y="185" width="98.5" height="30" as="geometry" />
        </mxCell>
        <mxCell id="rnwqKX7AX4xkAj5FHQGd-9" value="&lt;h1&gt;Ejercicio 7&amp;nbsp;&lt;/h1&gt;7)&amp;nbsp;Hacer un programa para ingresar una lista de números que finaliza cuando se ingresa un&amp;nbsp;&lt;span style=&quot;background-color: initial;&quot;&gt;cero, luego informar el máximo.&amp;nbsp;&lt;br&gt;&lt;/span&gt;&lt;span style=&quot;background-color: initial;&quot;&gt;Ejemplo: 5, 10, 20, 8, 25, 13, 35, -8, -5, 20, 0. Se listará Máximo 35.&lt;/span&gt;&lt;br&gt;&lt;div&gt;Ejemplo: 5, 10, 20, 8, 55, 13, 55, -8, -5, 20, 0. Se listará Máximo 55.&lt;/div&gt;&lt;div&gt;&lt;br&gt;&lt;/div&gt;&lt;span style=&quot;box-sizing: border-box; color: transparent; position: absolute; cursor: text; transform-origin: left top; top: 0px; height: 0px; font-family: sans-serif; font-size: medium; background-color: rgb(200, 200, 200);&quot; id=&quot;page10R_mcid19&quot; class=&quot;markedContent&quot;&gt;&lt;br style=&quot;box-sizing: border-box;&quot; role=&quot;presentation&quot;&gt;&lt;span style=&quot;box-sizing: border-box; position: absolute; cursor: text; transform-origin: left top; left: 130.493px; top: 677.077px; font-size: 18.4px; transform: scaleX(0.924194) translateY(-1.38px) translateX(-141.196px); padding: 1.38px 616.477px 1.38px 141.196px;&quot; dir=&quot;ltr&quot; role=&quot;presentation&quot;&gt;&lt;br&gt;&lt;/span&gt;&lt;/span&gt;" style="text;html=1;strokeColor=none;fillColor=none;spacing=5;spacingTop=-20;whiteSpace=wrap;overflow=hidden;rounded=0;" parent="rnwqKX7AX4xkAj5FHQGd-1" vertex="1">
          <mxGeometry x="10" y="10" width="820" height="120" as="geometry" />
        </mxCell>
        <mxCell id="rnwqKX7AX4xkAj5FHQGd-10" value="Programación I - Guia 4 - Ciclos&lt;br&gt;&lt;div style=&quot;text-align: left;&quot;&gt;&lt;span style=&quot;background-color: initial;&quot;&gt;Facundo Masino&lt;/span&gt;&lt;/div&gt;" style="text;html=1;strokeColor=none;fillColor=none;align=center;verticalAlign=middle;whiteSpace=wrap;rounded=0;fontSize=11;fontFamily=Helvetica;fontColor=default;" parent="rnwqKX7AX4xkAj5FHQGd-1" vertex="1">
          <mxGeometry x="658" y="11" width="160" height="30" as="geometry" />
        </mxCell>
        <mxCell id="rnwqKX7AX4xkAj5FHQGd-11" value="" style="edgeStyle=orthogonalEdgeStyle;shape=connector;rounded=0;orthogonalLoop=1;jettySize=auto;html=1;labelBackgroundColor=default;strokeColor=default;fontFamily=Helvetica;fontSize=11;fontColor=default;endArrow=none;endFill=0;" parent="rnwqKX7AX4xkAj5FHQGd-1" source="rnwqKX7AX4xkAj5FHQGd-2" target="rnwqKX7AX4xkAj5FHQGd-12" edge="1">
          <mxGeometry relative="1" as="geometry" />
        </mxCell>
        <mxCell id="rnwqKX7AX4xkAj5FHQGd-12" value="FIN" style="ellipse;whiteSpace=wrap;html=1;fontStyle=1;startSize=23;" parent="rnwqKX7AX4xkAj5FHQGd-1" vertex="1">
          <mxGeometry x="358" y="920" width="80" height="80" as="geometry" />
        </mxCell>
        <mxCell id="rnwqKX7AX4xkAj5FHQGd-13" value="INICIO" style="ellipse;whiteSpace=wrap;html=1;aspect=fixed;fontFamily=Helvetica;fontSize=11;fontColor=default;" parent="rnwqKX7AX4xkAj5FHQGd-1" vertex="1">
          <mxGeometry x="358" y="160" width="80" height="80" as="geometry" />
        </mxCell>
        <mxCell id="rnwqKX7AX4xkAj5FHQGd-14" style="edgeStyle=orthogonalEdgeStyle;shape=connector;rounded=0;orthogonalLoop=1;jettySize=auto;html=1;entryX=0.5;entryY=1;entryDx=0;entryDy=0;labelBackgroundColor=default;strokeColor=default;fontFamily=Helvetica;fontSize=11;fontColor=default;endArrow=none;endFill=0;" parent="rnwqKX7AX4xkAj5FHQGd-1" source="rnwqKX7AX4xkAj5FHQGd-15" target="rnwqKX7AX4xkAj5FHQGd-13" edge="1">
          <mxGeometry relative="1" as="geometry" />
        </mxCell>
        <mxCell id="rnwqKX7AX4xkAj5FHQGd-15" value="N" style="shape=trapezoid;perimeter=trapezoidPerimeter;whiteSpace=wrap;html=1;fixedSize=1;direction=west;" parent="rnwqKX7AX4xkAj5FHQGd-1" vertex="1">
          <mxGeometry x="313" y="280" width="170" height="40" as="geometry" />
        </mxCell>
        <mxCell id="rnwqKX7AX4xkAj5FHQGd-16" style="edgeStyle=orthogonalEdgeStyle;rounded=0;orthogonalLoop=1;jettySize=auto;html=1;entryX=0.5;entryY=0;entryDx=0;entryDy=0;endArrow=none;endFill=0;" parent="rnwqKX7AX4xkAj5FHQGd-1" source="rnwqKX7AX4xkAj5FHQGd-17" target="rnwqKX7AX4xkAj5FHQGd-15" edge="1">
          <mxGeometry relative="1" as="geometry" />
        </mxCell>
        <mxCell id="rnwqKX7AX4xkAj5FHQGd-17" value="esPrimero = true" style="rounded=0;whiteSpace=wrap;html=1;" parent="rnwqKX7AX4xkAj5FHQGd-1" vertex="1">
          <mxGeometry x="351.5" y="340" width="95.5" height="30" as="geometry" />
        </mxCell>
        <mxCell id="rnwqKX7AX4xkAj5FHQGd-18" style="edgeStyle=orthogonalEdgeStyle;shape=connector;rounded=0;orthogonalLoop=1;jettySize=auto;html=1;entryX=0.5;entryY=1;entryDx=0;entryDy=0;labelBackgroundColor=default;strokeColor=default;fontFamily=Helvetica;fontSize=11;fontColor=default;endArrow=none;endFill=0;" parent="rnwqKX7AX4xkAj5FHQGd-1" source="rnwqKX7AX4xkAj5FHQGd-20" target="rnwqKX7AX4xkAj5FHQGd-17" edge="1">
          <mxGeometry relative="1" as="geometry" />
        </mxCell>
        <mxCell id="rnwqKX7AX4xkAj5FHQGd-19" style="edgeStyle=orthogonalEdgeStyle;shape=connector;rounded=0;orthogonalLoop=1;jettySize=auto;html=1;entryX=0.5;entryY=0;entryDx=0;entryDy=0;labelBackgroundColor=default;strokeColor=default;fontFamily=Helvetica;fontSize=11;fontColor=default;endArrow=none;endFill=0;" parent="rnwqKX7AX4xkAj5FHQGd-1" edge="1">
          <mxGeometry relative="1" as="geometry">
            <mxPoint x="402" y="420" as="sourcePoint" />
            <mxPoint x="400" y="445" as="targetPoint" />
          </mxGeometry>
        </mxCell>
        <mxCell id="rnwqKX7AX4xkAj5FHQGd-20" value="max = 0" style="rounded=0;whiteSpace=wrap;html=1;" parent="rnwqKX7AX4xkAj5FHQGd-1" vertex="1">
          <mxGeometry x="355.5" y="390" width="87" height="30" as="geometry" />
        </mxCell>
        <mxCell id="rnwqKX7AX4xkAj5FHQGd-21" value="&quot;Máximo &quot;, max" style="shape=trapezoid;perimeter=trapezoidPerimeter;whiteSpace=wrap;html=1;fixedSize=1;direction=east;" parent="rnwqKX7AX4xkAj5FHQGd-1" vertex="1">
          <mxGeometry x="286.5" y="840" width="227" height="40" as="geometry" />
        </mxCell>
      </root>
    </mxGraphModel>
  </diagram>
  <diagram name="E8" id="pI_nz7RAJR8hpte8b6iP">
    <mxGraphModel grid="1" page="1" gridSize="10" guides="1" tooltips="1" connect="1" arrows="1" fold="1" pageScale="1" pageWidth="850" pageHeight="1100" math="0" shadow="0">
      <root>
        <mxCell id="HGF4waB5wvo6ioK_5fzU-0" />
        <mxCell id="HGF4waB5wvo6ioK_5fzU-1" parent="HGF4waB5wvo6ioK_5fzU-0" />
        <mxCell id="KeVpU8xqGPoojuI35REu-9" value="" style="endArrow=none;html=1;rounded=0;labelBackgroundColor=default;strokeColor=default;fontFamily=Helvetica;fontSize=11;fontColor=default;shape=connector;entryX=0.5;entryY=1;entryDx=0;entryDy=0;exitX=0.521;exitY=-0.007;exitDx=0;exitDy=0;exitPerimeter=0;" edge="1" parent="HGF4waB5wvo6ioK_5fzU-1" source="KeVpU8xqGPoojuI35REu-6" target="HGF4waB5wvo6ioK_5fzU-17">
          <mxGeometry width="50" height="50" relative="1" as="geometry">
            <mxPoint x="399" y="399" as="sourcePoint" />
            <mxPoint x="400" y="340" as="targetPoint" />
          </mxGeometry>
        </mxCell>
        <mxCell id="HGF4waB5wvo6ioK_5fzU-2" value="N != 0" style="swimlane;whiteSpace=wrap;html=1;swimlaneLine=1;container=0;" parent="HGF4waB5wvo6ioK_5fzU-1" vertex="1">
          <mxGeometry x="177" y="445" width="440" height="360" as="geometry">
            <mxRectangle x="180" y="190" width="140" height="30" as="alternateBounds" />
          </mxGeometry>
        </mxCell>
        <mxCell id="HGF4waB5wvo6ioK_5fzU-3" style="edgeStyle=orthogonalEdgeStyle;shape=connector;rounded=0;orthogonalLoop=1;jettySize=auto;html=1;entryX=0.5;entryY=1;entryDx=0;entryDy=0;labelBackgroundColor=default;strokeColor=default;fontFamily=Helvetica;fontSize=11;fontColor=default;endArrow=none;endFill=0;" parent="HGF4waB5wvo6ioK_5fzU-2" source="HGF4waB5wvo6ioK_5fzU-4" target="HGF4waB5wvo6ioK_5fzU-7" edge="1">
          <mxGeometry relative="1" as="geometry" />
        </mxCell>
        <mxCell id="HGF4waB5wvo6ioK_5fzU-4" value="" style="rounded=0;whiteSpace=wrap;html=1;" parent="HGF4waB5wvo6ioK_5fzU-2" vertex="1">
          <mxGeometry x="127" y="130" width="190" height="120" as="geometry" />
        </mxCell>
        <mxCell id="KeVpU8xqGPoojuI35REu-5" style="edgeStyle=orthogonalEdgeStyle;shape=connector;rounded=0;orthogonalLoop=1;jettySize=auto;html=1;entryX=0.5;entryY=1;entryDx=0;entryDy=0;labelBackgroundColor=default;strokeColor=default;fontFamily=Helvetica;fontSize=11;fontColor=default;endArrow=none;endFill=0;" edge="1" parent="HGF4waB5wvo6ioK_5fzU-2" source="HGF4waB5wvo6ioK_5fzU-5" target="HGF4waB5wvo6ioK_5fzU-8">
          <mxGeometry relative="1" as="geometry" />
        </mxCell>
        <mxCell id="HGF4waB5wvo6ioK_5fzU-5" value="N &amp;gt; max&lt;br&gt;||&lt;br&gt;pos == 1" style="rhombus;whiteSpace=wrap;html=1;" parent="HGF4waB5wvo6ioK_5fzU-2" vertex="1">
          <mxGeometry x="167" y="82" width="112" height="96" as="geometry" />
        </mxCell>
        <mxCell id="HGF4waB5wvo6ioK_5fzU-6" value="max = N" style="rounded=0;whiteSpace=wrap;html=1;" parent="HGF4waB5wvo6ioK_5fzU-2" vertex="1">
          <mxGeometry x="91.5" y="165" width="87" height="30" as="geometry" />
        </mxCell>
        <mxCell id="HGF4waB5wvo6ioK_5fzU-7" value="N" style="shape=trapezoid;perimeter=trapezoidPerimeter;whiteSpace=wrap;html=1;fixedSize=1;direction=west;" parent="HGF4waB5wvo6ioK_5fzU-2" vertex="1">
          <mxGeometry x="137" y="275" width="170" height="40" as="geometry" />
        </mxCell>
        <mxCell id="HGF4waB5wvo6ioK_5fzU-8" value="pos++" style="rounded=0;whiteSpace=wrap;html=1;" parent="HGF4waB5wvo6ioK_5fzU-2" vertex="1">
          <mxGeometry x="173.75" y="32" width="98.5" height="30" as="geometry" />
        </mxCell>
        <mxCell id="KeVpU8xqGPoojuI35REu-14" value="posMax = pos" style="rounded=0;whiteSpace=wrap;html=1;" vertex="1" parent="HGF4waB5wvo6ioK_5fzU-2">
          <mxGeometry x="91.5" y="205" width="87" height="30" as="geometry" />
        </mxCell>
        <mxCell id="HGF4waB5wvo6ioK_5fzU-9" value="&lt;h1&gt;Ejercicio 8&amp;nbsp;&lt;/h1&gt;8)&amp;nbsp;Hacer un programa para ingresar una lista de números que finaliza cuando se ingresa un&amp;nbsp;&lt;span style=&quot;background-color: initial;&quot;&gt;cero, luego informar el máximo y la posición del máximo en la lista. En caso de “empates”&amp;nbsp;&lt;/span&gt;&lt;span style=&quot;background-color: initial;&quot;&gt;considerar la primera aparición.&lt;/span&gt;&lt;span style=&quot;background-color: initial;&quot;&gt;&lt;br&gt;&lt;/span&gt;&lt;div&gt;Ejemplo: 5, -10, 20, 8, 25, 13, 35, -8, -5, 20, 0. Se listará Máximo 35 Posición 7.&lt;/div&gt;&lt;div&gt;Ejemplo: 5, -10, 20, 8, 25, 13, 55, -8, 55, 20, 0. Se listará Máximo 55 Posición 7.&lt;/div&gt;&lt;div&gt;&lt;br&gt;&lt;/div&gt;&lt;div&gt;&lt;br&gt;&lt;/div&gt;&lt;span style=&quot;box-sizing: border-box; color: transparent; position: absolute; cursor: text; transform-origin: left top; top: 0px; height: 0px; font-family: sans-serif; font-size: medium; background-color: rgb(200, 200, 200);&quot; id=&quot;page10R_mcid19&quot; class=&quot;markedContent&quot;&gt;&lt;br style=&quot;box-sizing: border-box;&quot; role=&quot;presentation&quot;&gt;&lt;span style=&quot;box-sizing: border-box; position: absolute; cursor: text; transform-origin: left top; left: 130.493px; top: 677.077px; font-size: 18.4px; transform: scaleX(0.924194) translateY(-1.38px) translateX(-141.196px); padding: 1.38px 616.477px 1.38px 141.196px;&quot; dir=&quot;ltr&quot; role=&quot;presentation&quot;&gt;&lt;br&gt;&lt;/span&gt;&lt;/span&gt;" style="text;html=1;strokeColor=none;fillColor=none;spacing=5;spacingTop=-20;whiteSpace=wrap;overflow=hidden;rounded=0;" parent="HGF4waB5wvo6ioK_5fzU-1" vertex="1">
          <mxGeometry x="10" y="10" width="820" height="120" as="geometry" />
        </mxCell>
        <mxCell id="HGF4waB5wvo6ioK_5fzU-10" value="Programación I - Guia 4 - Ciclos&lt;br&gt;&lt;div style=&quot;text-align: left;&quot;&gt;&lt;span style=&quot;background-color: initial;&quot;&gt;Facundo Masino&lt;/span&gt;&lt;/div&gt;" style="text;html=1;strokeColor=none;fillColor=none;align=center;verticalAlign=middle;whiteSpace=wrap;rounded=0;fontSize=11;fontFamily=Helvetica;fontColor=default;" parent="HGF4waB5wvo6ioK_5fzU-1" vertex="1">
          <mxGeometry x="658" y="11" width="160" height="30" as="geometry" />
        </mxCell>
        <mxCell id="HGF4waB5wvo6ioK_5fzU-11" value="" style="edgeStyle=orthogonalEdgeStyle;shape=connector;rounded=0;orthogonalLoop=1;jettySize=auto;html=1;labelBackgroundColor=default;strokeColor=default;fontFamily=Helvetica;fontSize=11;fontColor=default;endArrow=none;endFill=0;" parent="HGF4waB5wvo6ioK_5fzU-1" source="HGF4waB5wvo6ioK_5fzU-2" target="HGF4waB5wvo6ioK_5fzU-12" edge="1">
          <mxGeometry relative="1" as="geometry" />
        </mxCell>
        <mxCell id="HGF4waB5wvo6ioK_5fzU-12" value="FIN" style="ellipse;whiteSpace=wrap;html=1;fontStyle=1;startSize=23;" parent="HGF4waB5wvo6ioK_5fzU-1" vertex="1">
          <mxGeometry x="358" y="920" width="80" height="80" as="geometry" />
        </mxCell>
        <mxCell id="HGF4waB5wvo6ioK_5fzU-13" value="INICIO" style="ellipse;whiteSpace=wrap;html=1;aspect=fixed;fontFamily=Helvetica;fontSize=11;fontColor=default;" parent="HGF4waB5wvo6ioK_5fzU-1" vertex="1">
          <mxGeometry x="358" y="160" width="80" height="80" as="geometry" />
        </mxCell>
        <mxCell id="HGF4waB5wvo6ioK_5fzU-14" style="edgeStyle=orthogonalEdgeStyle;shape=connector;rounded=0;orthogonalLoop=1;jettySize=auto;html=1;entryX=0.5;entryY=1;entryDx=0;entryDy=0;labelBackgroundColor=default;strokeColor=default;fontFamily=Helvetica;fontSize=11;fontColor=default;endArrow=none;endFill=0;" parent="HGF4waB5wvo6ioK_5fzU-1" source="HGF4waB5wvo6ioK_5fzU-15" target="HGF4waB5wvo6ioK_5fzU-13" edge="1">
          <mxGeometry relative="1" as="geometry" />
        </mxCell>
        <mxCell id="HGF4waB5wvo6ioK_5fzU-15" value="N" style="shape=trapezoid;perimeter=trapezoidPerimeter;whiteSpace=wrap;html=1;fixedSize=1;direction=west;" parent="HGF4waB5wvo6ioK_5fzU-1" vertex="1">
          <mxGeometry x="314" y="260" width="170" height="40" as="geometry" />
        </mxCell>
        <mxCell id="HGF4waB5wvo6ioK_5fzU-16" style="edgeStyle=orthogonalEdgeStyle;rounded=0;orthogonalLoop=1;jettySize=auto;html=1;entryX=0.5;entryY=0;entryDx=0;entryDy=0;endArrow=none;endFill=0;" parent="HGF4waB5wvo6ioK_5fzU-1" source="HGF4waB5wvo6ioK_5fzU-17" target="HGF4waB5wvo6ioK_5fzU-15" edge="1">
          <mxGeometry relative="1" as="geometry" />
        </mxCell>
        <mxCell id="HGF4waB5wvo6ioK_5fzU-17" value="pos = 0" style="rounded=0;whiteSpace=wrap;html=1;" parent="HGF4waB5wvo6ioK_5fzU-1" vertex="1">
          <mxGeometry x="351.5" y="320" width="95.5" height="30" as="geometry" />
        </mxCell>
        <mxCell id="HGF4waB5wvo6ioK_5fzU-20" value="max = 0" style="rounded=0;whiteSpace=wrap;html=1;" parent="HGF4waB5wvo6ioK_5fzU-1" vertex="1">
          <mxGeometry x="355.5" y="357" width="87" height="30" as="geometry" />
        </mxCell>
        <mxCell id="HGF4waB5wvo6ioK_5fzU-21" value="&quot;Máximo: &quot;, max, &quot; posición: &quot;, posMax" style="shape=trapezoid;perimeter=trapezoidPerimeter;whiteSpace=wrap;html=1;fixedSize=1;direction=east;" parent="HGF4waB5wvo6ioK_5fzU-1" vertex="1">
          <mxGeometry x="281.25" y="840" width="233.5" height="40" as="geometry" />
        </mxCell>
        <mxCell id="KeVpU8xqGPoojuI35REu-13" style="edgeStyle=orthogonalEdgeStyle;shape=connector;rounded=0;orthogonalLoop=1;jettySize=auto;html=1;entryX=0.502;entryY=0;entryDx=0;entryDy=0;entryPerimeter=0;labelBackgroundColor=default;strokeColor=default;fontFamily=Helvetica;fontSize=11;fontColor=default;endArrow=none;endFill=0;" edge="1" parent="HGF4waB5wvo6ioK_5fzU-1" source="KeVpU8xqGPoojuI35REu-6" target="HGF4waB5wvo6ioK_5fzU-2">
          <mxGeometry relative="1" as="geometry" />
        </mxCell>
        <mxCell id="KeVpU8xqGPoojuI35REu-6" value="posMax = 0" style="rounded=0;whiteSpace=wrap;html=1;" vertex="1" parent="HGF4waB5wvo6ioK_5fzU-1">
          <mxGeometry x="354.5" y="395" width="87" height="30" as="geometry" />
        </mxCell>
      </root>
    </mxGraphModel>
  </diagram>
  <diagram name="E9" id="KYWihS84Np0ePzsEiScG">
    <mxGraphModel grid="1" page="1" gridSize="10" guides="1" tooltips="1" connect="1" arrows="1" fold="1" pageScale="1" pageWidth="850" pageHeight="1100" math="0" shadow="0">
      <root>
        <mxCell id="KAWeWrpQmdry-a2lw89K-0" />
        <mxCell id="KAWeWrpQmdry-a2lw89K-1" parent="KAWeWrpQmdry-a2lw89K-0" />
        <mxCell id="KAWeWrpQmdry-a2lw89K-3" value="N != 0" style="swimlane;whiteSpace=wrap;html=1;swimlaneLine=1;container=0;" vertex="1" parent="KAWeWrpQmdry-a2lw89K-1">
          <mxGeometry x="110" y="450" width="620" height="430" as="geometry">
            <mxRectangle x="180" y="190" width="140" height="30" as="alternateBounds" />
          </mxGeometry>
        </mxCell>
        <mxCell id="KAWeWrpQmdry-a2lw89K-4" style="edgeStyle=orthogonalEdgeStyle;shape=connector;rounded=0;orthogonalLoop=1;jettySize=auto;html=1;entryX=0.5;entryY=1;entryDx=0;entryDy=0;labelBackgroundColor=default;strokeColor=default;fontFamily=Helvetica;fontSize=11;fontColor=default;endArrow=none;endFill=0;" edge="1" parent="KAWeWrpQmdry-a2lw89K-3" source="KAWeWrpQmdry-a2lw89K-5" target="KAWeWrpQmdry-a2lw89K-9">
          <mxGeometry relative="1" as="geometry" />
        </mxCell>
        <mxCell id="KAWeWrpQmdry-a2lw89K-5" value="" style="rounded=0;whiteSpace=wrap;html=1;" vertex="1" parent="KAWeWrpQmdry-a2lw89K-3">
          <mxGeometry x="159" y="98" width="280" height="232" as="geometry" />
        </mxCell>
        <mxCell id="KAWeWrpQmdry-a2lw89K-7" value="primero" style="rhombus;whiteSpace=wrap;html=1;" vertex="1" parent="KAWeWrpQmdry-a2lw89K-3">
          <mxGeometry x="243" y="50" width="112" height="96" as="geometry" />
        </mxCell>
        <mxCell id="KAWeWrpQmdry-a2lw89K-8" value="max = N" style="rounded=0;whiteSpace=wrap;html=1;" vertex="1" parent="KAWeWrpQmdry-a2lw89K-3">
          <mxGeometry x="110" y="146" width="87" height="30" as="geometry" />
        </mxCell>
        <mxCell id="KAWeWrpQmdry-a2lw89K-9" value="N" style="shape=trapezoid;perimeter=trapezoidPerimeter;whiteSpace=wrap;html=1;fixedSize=1;direction=west;" vertex="1" parent="KAWeWrpQmdry-a2lw89K-3">
          <mxGeometry x="214" y="350" width="170" height="40" as="geometry" />
        </mxCell>
        <mxCell id="KAWeWrpQmdry-a2lw89K-11" value="min = N" style="rounded=0;whiteSpace=wrap;html=1;" vertex="1" parent="KAWeWrpQmdry-a2lw89K-3">
          <mxGeometry x="110" y="180" width="87" height="30" as="geometry" />
        </mxCell>
        <mxCell id="q54NwwhjKezH2l_DgAkT-7" value="primero = false" style="rounded=0;whiteSpace=wrap;html=1;" vertex="1" parent="KAWeWrpQmdry-a2lw89K-3">
          <mxGeometry x="110" y="214" width="87" height="30" as="geometry" />
        </mxCell>
        <mxCell id="YqyYeUE1jHmReSwdMAc4-4" value="" style="rounded=0;whiteSpace=wrap;html=1;" vertex="1" parent="KAWeWrpQmdry-a2lw89K-3">
          <mxGeometry x="355" y="150" width="160" height="160" as="geometry" />
        </mxCell>
        <mxCell id="YqyYeUE1jHmReSwdMAc4-0" value="N &amp;gt; max" style="rhombus;whiteSpace=wrap;html=1;" vertex="1" parent="KAWeWrpQmdry-a2lw89K-3">
          <mxGeometry x="395" y="110" width="87" height="80" as="geometry" />
        </mxCell>
        <mxCell id="YqyYeUE1jHmReSwdMAc4-6" value="" style="rounded=0;whiteSpace=wrap;html=1;" vertex="1" parent="KAWeWrpQmdry-a2lw89K-3">
          <mxGeometry x="454.5" y="199" width="120" height="91" as="geometry" />
        </mxCell>
        <mxCell id="YqyYeUE1jHmReSwdMAc4-5" value="N &amp;lt; min" style="rhombus;whiteSpace=wrap;html=1;" vertex="1" parent="KAWeWrpQmdry-a2lw89K-3">
          <mxGeometry x="475.5" y="165" width="80" height="69" as="geometry" />
        </mxCell>
        <mxCell id="YqyYeUE1jHmReSwdMAc4-7" value="max = N" style="rounded=0;whiteSpace=wrap;html=1;" vertex="1" parent="KAWeWrpQmdry-a2lw89K-3">
          <mxGeometry x="315" y="210" width="87" height="30" as="geometry" />
        </mxCell>
        <mxCell id="YqyYeUE1jHmReSwdMAc4-8" value="min = N" style="rounded=0;whiteSpace=wrap;html=1;" vertex="1" parent="KAWeWrpQmdry-a2lw89K-3">
          <mxGeometry x="410" y="244" width="87" height="30" as="geometry" />
        </mxCell>
        <mxCell id="KAWeWrpQmdry-a2lw89K-2" value="" style="endArrow=none;html=1;rounded=0;labelBackgroundColor=default;strokeColor=default;fontFamily=Helvetica;fontSize=11;fontColor=default;shape=connector;entryX=0.5;entryY=1;entryDx=0;entryDy=0;exitX=0.521;exitY=-0.007;exitDx=0;exitDy=0;exitPerimeter=0;" edge="1" parent="KAWeWrpQmdry-a2lw89K-1" source="KAWeWrpQmdry-a2lw89K-24" target="KAWeWrpQmdry-a2lw89K-20">
          <mxGeometry width="50" height="50" relative="1" as="geometry">
            <mxPoint x="399" y="399" as="sourcePoint" />
            <mxPoint x="400" y="340" as="targetPoint" />
          </mxGeometry>
        </mxCell>
        <mxCell id="KAWeWrpQmdry-a2lw89K-12" value="&lt;h1&gt;Ejercicio 9&lt;/h1&gt;9)&amp;nbsp;Hacer un programa para ingresar una lista de números que finaliza cuando se ingresa un&amp;nbsp;&lt;span style=&quot;background-color: initial;&quot;&gt;cero, luego informar el máximo y el mínimo.&lt;/span&gt;&lt;br&gt;&lt;div&gt;Ejemplo: 10, 20, -5, 30,-15, 5, 42, 2, 22, -13, 0. Se listará Máximo 42 Mínimo -15.&lt;/div&gt;&lt;div&gt;Ejemplo: 10, 20, 5, 30, 15, 5, 42, 8, 22, 13, 0. Se listará Máximo 42 Mínimo 5.&lt;/div&gt;&lt;div&gt;Ejemplo: -10, -20, -5, -30, -15, -12, -42, -8, -22, -13, 0. Se listará Máximo -5 Mínimo -42.&lt;/div&gt;&lt;div&gt;Observe que los tres ejemplos dejan en claro que la idea de que el máximo&lt;/div&gt;&lt;div&gt;“seguramente” es un positivo y el mínimo “seguramente” es un negativo, queda&lt;/div&gt;&lt;div&gt;totalmente descartada.&lt;/div&gt;&lt;div&gt;&lt;br&gt;&lt;/div&gt;&lt;div&gt;&lt;br&gt;&lt;/div&gt;&lt;div&gt;&lt;br&gt;&lt;/div&gt;&lt;span style=&quot;box-sizing: border-box; color: transparent; position: absolute; cursor: text; transform-origin: left top; top: 0px; height: 0px; font-family: sans-serif; font-size: medium; background-color: rgb(200, 200, 200);&quot; id=&quot;page10R_mcid19&quot; class=&quot;markedContent&quot;&gt;&lt;br style=&quot;box-sizing: border-box;&quot; role=&quot;presentation&quot;&gt;&lt;span style=&quot;box-sizing: border-box; position: absolute; cursor: text; transform-origin: left top; left: 130.493px; top: 677.077px; font-size: 18.4px; transform: scaleX(0.924194) translateY(-1.38px) translateX(-141.196px); padding: 1.38px 616.477px 1.38px 141.196px;&quot; dir=&quot;ltr&quot; role=&quot;presentation&quot;&gt;&lt;br&gt;&lt;/span&gt;&lt;/span&gt;" style="text;html=1;strokeColor=none;fillColor=none;spacing=5;spacingTop=-20;whiteSpace=wrap;overflow=hidden;rounded=0;" vertex="1" parent="KAWeWrpQmdry-a2lw89K-1">
          <mxGeometry x="10" y="10" width="820" height="150" as="geometry" />
        </mxCell>
        <mxCell id="KAWeWrpQmdry-a2lw89K-13" value="Programación I - Guia 4 - Ciclos&lt;br&gt;&lt;div style=&quot;text-align: left;&quot;&gt;&lt;span style=&quot;background-color: initial;&quot;&gt;Facundo Masino&lt;/span&gt;&lt;/div&gt;" style="text;html=1;strokeColor=none;fillColor=none;align=center;verticalAlign=middle;whiteSpace=wrap;rounded=0;fontSize=11;fontFamily=Helvetica;fontColor=default;" vertex="1" parent="KAWeWrpQmdry-a2lw89K-1">
          <mxGeometry x="658" y="11" width="160" height="30" as="geometry" />
        </mxCell>
        <mxCell id="KAWeWrpQmdry-a2lw89K-15" value="FIN" style="ellipse;whiteSpace=wrap;html=1;fontStyle=1;startSize=23;" vertex="1" parent="KAWeWrpQmdry-a2lw89K-1">
          <mxGeometry x="359.25" y="990" width="80" height="80" as="geometry" />
        </mxCell>
        <mxCell id="KAWeWrpQmdry-a2lw89K-16" value="INICIO" style="ellipse;whiteSpace=wrap;html=1;aspect=fixed;fontFamily=Helvetica;fontSize=11;fontColor=default;" vertex="1" parent="KAWeWrpQmdry-a2lw89K-1">
          <mxGeometry x="358" y="160" width="80" height="80" as="geometry" />
        </mxCell>
        <mxCell id="KAWeWrpQmdry-a2lw89K-17" style="edgeStyle=orthogonalEdgeStyle;shape=connector;rounded=0;orthogonalLoop=1;jettySize=auto;html=1;entryX=0.5;entryY=1;entryDx=0;entryDy=0;labelBackgroundColor=default;strokeColor=default;fontFamily=Helvetica;fontSize=11;fontColor=default;endArrow=none;endFill=0;" edge="1" parent="KAWeWrpQmdry-a2lw89K-1" source="KAWeWrpQmdry-a2lw89K-18" target="KAWeWrpQmdry-a2lw89K-16">
          <mxGeometry relative="1" as="geometry" />
        </mxCell>
        <mxCell id="KAWeWrpQmdry-a2lw89K-18" value="N" style="shape=trapezoid;perimeter=trapezoidPerimeter;whiteSpace=wrap;html=1;fixedSize=1;direction=west;" vertex="1" parent="KAWeWrpQmdry-a2lw89K-1">
          <mxGeometry x="314" y="260" width="170" height="40" as="geometry" />
        </mxCell>
        <mxCell id="KAWeWrpQmdry-a2lw89K-19" style="edgeStyle=orthogonalEdgeStyle;rounded=0;orthogonalLoop=1;jettySize=auto;html=1;entryX=0.5;entryY=0;entryDx=0;entryDy=0;endArrow=none;endFill=0;" edge="1" parent="KAWeWrpQmdry-a2lw89K-1" source="KAWeWrpQmdry-a2lw89K-20" target="KAWeWrpQmdry-a2lw89K-18">
          <mxGeometry relative="1" as="geometry" />
        </mxCell>
        <mxCell id="KAWeWrpQmdry-a2lw89K-20" value="primero = true" style="rounded=0;whiteSpace=wrap;html=1;" vertex="1" parent="KAWeWrpQmdry-a2lw89K-1">
          <mxGeometry x="351.5" y="320" width="95.5" height="30" as="geometry" />
        </mxCell>
        <mxCell id="KAWeWrpQmdry-a2lw89K-21" value="max = 0" style="rounded=0;whiteSpace=wrap;html=1;" vertex="1" parent="KAWeWrpQmdry-a2lw89K-1">
          <mxGeometry x="355.5" y="357" width="87" height="30" as="geometry" />
        </mxCell>
        <mxCell id="YqyYeUE1jHmReSwdMAc4-9" style="edgeStyle=orthogonalEdgeStyle;rounded=0;orthogonalLoop=1;jettySize=auto;html=1;endArrow=none;endFill=0;" edge="1" parent="KAWeWrpQmdry-a2lw89K-1" source="KAWeWrpQmdry-a2lw89K-22">
          <mxGeometry relative="1" as="geometry">
            <mxPoint x="399.25" y="880" as="targetPoint" />
          </mxGeometry>
        </mxCell>
        <mxCell id="YqyYeUE1jHmReSwdMAc4-10" style="edgeStyle=orthogonalEdgeStyle;shape=connector;rounded=0;orthogonalLoop=1;jettySize=auto;html=1;entryX=0.5;entryY=0;entryDx=0;entryDy=0;labelBackgroundColor=default;strokeColor=default;fontFamily=Helvetica;fontSize=11;fontColor=default;endArrow=none;endFill=0;" edge="1" parent="KAWeWrpQmdry-a2lw89K-1" source="KAWeWrpQmdry-a2lw89K-22" target="KAWeWrpQmdry-a2lw89K-15">
          <mxGeometry relative="1" as="geometry" />
        </mxCell>
        <mxCell id="KAWeWrpQmdry-a2lw89K-22" value="&quot;Máximo: &quot;, max, &quot; Mínimo: &quot;, min" style="shape=trapezoid;perimeter=trapezoidPerimeter;whiteSpace=wrap;html=1;fixedSize=1;direction=east;" vertex="1" parent="KAWeWrpQmdry-a2lw89K-1">
          <mxGeometry x="282.5" y="910" width="233.5" height="40" as="geometry" />
        </mxCell>
        <mxCell id="KAWeWrpQmdry-a2lw89K-23" style="edgeStyle=orthogonalEdgeStyle;shape=connector;rounded=0;orthogonalLoop=1;jettySize=auto;html=1;entryX=0.502;entryY=0;entryDx=0;entryDy=0;entryPerimeter=0;labelBackgroundColor=default;strokeColor=default;fontFamily=Helvetica;fontSize=11;fontColor=default;endArrow=none;endFill=0;" edge="1" parent="KAWeWrpQmdry-a2lw89K-1" source="KAWeWrpQmdry-a2lw89K-24" target="KAWeWrpQmdry-a2lw89K-3">
          <mxGeometry relative="1" as="geometry">
            <Array as="points">
              <mxPoint x="398" y="450" />
            </Array>
          </mxGeometry>
        </mxCell>
        <mxCell id="KAWeWrpQmdry-a2lw89K-24" value="min = 0" style="rounded=0;whiteSpace=wrap;html=1;" vertex="1" parent="KAWeWrpQmdry-a2lw89K-1">
          <mxGeometry x="354.5" y="395" width="87" height="30" as="geometry" />
        </mxCell>
      </root>
    </mxGraphModel>
  </diagram>
  <diagram name="E10" id="1GcwG1UE0olS_GGXz_rR">
    <mxGraphModel grid="1" page="1" gridSize="10" guides="1" tooltips="1" connect="1" arrows="1" fold="1" pageScale="1" pageWidth="850" pageHeight="1100" math="0" shadow="0">
      <root>
        <mxCell id="19fOecIbFHl0vKgOHbhd-0" />
        <mxCell id="19fOecIbFHl0vKgOHbhd-1" parent="19fOecIbFHl0vKgOHbhd-0" />
        <mxCell id="19fOecIbFHl0vKgOHbhd-2" value="N != 0" style="swimlane;whiteSpace=wrap;html=1;swimlaneLine=1;container=0;" vertex="1" parent="19fOecIbFHl0vKgOHbhd-1">
          <mxGeometry x="80" y="450" width="680" height="430" as="geometry">
            <mxRectangle x="180" y="190" width="140" height="30" as="alternateBounds" />
          </mxGeometry>
        </mxCell>
        <mxCell id="8XMEdb07caAXs98eFKaU-7" value="" style="rounded=0;whiteSpace=wrap;html=1;fontFamily=Helvetica;fontSize=11;fontColor=default;" vertex="1" parent="19fOecIbFHl0vKgOHbhd-2">
          <mxGeometry x="150" y="90" width="336" height="260" as="geometry" />
        </mxCell>
        <mxCell id="19fOecIbFHl0vKgOHbhd-4" value="" style="rounded=0;whiteSpace=wrap;html=1;" vertex="1" parent="19fOecIbFHl0vKgOHbhd-2">
          <mxGeometry x="387" y="153" width="203" height="162" as="geometry" />
        </mxCell>
        <mxCell id="19fOecIbFHl0vKgOHbhd-5" value="minPos == 0" style="rhombus;whiteSpace=wrap;html=1;" vertex="1" parent="19fOecIbFHl0vKgOHbhd-2">
          <mxGeometry x="430" y="105" width="112" height="96" as="geometry" />
        </mxCell>
        <mxCell id="19fOecIbFHl0vKgOHbhd-6" value="minPos&amp;nbsp;= N" style="rounded=0;whiteSpace=wrap;html=1;" vertex="1" parent="19fOecIbFHl0vKgOHbhd-2">
          <mxGeometry x="340" y="219" width="87" height="30" as="geometry" />
        </mxCell>
        <mxCell id="8XMEdb07caAXs98eFKaU-9" style="edgeStyle=orthogonalEdgeStyle;shape=connector;rounded=0;orthogonalLoop=1;jettySize=auto;html=1;entryX=0.5;entryY=1;entryDx=0;entryDy=0;labelBackgroundColor=default;strokeColor=default;fontFamily=Helvetica;fontSize=11;fontColor=default;endArrow=none;endFill=0;" edge="1" parent="19fOecIbFHl0vKgOHbhd-2" source="19fOecIbFHl0vKgOHbhd-7" target="8XMEdb07caAXs98eFKaU-7">
          <mxGeometry relative="1" as="geometry" />
        </mxCell>
        <mxCell id="19fOecIbFHl0vKgOHbhd-7" value="N" style="shape=trapezoid;perimeter=trapezoidPerimeter;whiteSpace=wrap;html=1;fixedSize=1;direction=west;" vertex="1" parent="19fOecIbFHl0vKgOHbhd-2">
          <mxGeometry x="237" y="370" width="170" height="40" as="geometry" />
        </mxCell>
        <mxCell id="19fOecIbFHl0vKgOHbhd-10" value="" style="rounded=0;whiteSpace=wrap;html=1;" vertex="1" parent="19fOecIbFHl0vKgOHbhd-2">
          <mxGeometry x="527" y="205" width="120" height="90" as="geometry" />
        </mxCell>
        <mxCell id="19fOecIbFHl0vKgOHbhd-11" value="N &amp;lt; minPos&amp;nbsp;" style="rhombus;whiteSpace=wrap;html=1;" vertex="1" parent="19fOecIbFHl0vKgOHbhd-2">
          <mxGeometry x="546" y="165" width="87" height="80" as="geometry" />
        </mxCell>
        <mxCell id="19fOecIbFHl0vKgOHbhd-14" value="minPos&amp;nbsp;= N" style="rounded=0;whiteSpace=wrap;html=1;" vertex="1" parent="19fOecIbFHl0vKgOHbhd-2">
          <mxGeometry x="477" y="235" width="87" height="30" as="geometry" />
        </mxCell>
        <mxCell id="8XMEdb07caAXs98eFKaU-0" value="" style="rounded=0;whiteSpace=wrap;html=1;" vertex="1" parent="19fOecIbFHl0vKgOHbhd-2">
          <mxGeometry x="57" y="153" width="203" height="162" as="geometry" />
        </mxCell>
        <mxCell id="8XMEdb07caAXs98eFKaU-1" value="maxNeg == 0" style="rhombus;whiteSpace=wrap;html=1;" vertex="1" parent="19fOecIbFHl0vKgOHbhd-2">
          <mxGeometry x="94" y="105" width="112" height="96" as="geometry" />
        </mxCell>
        <mxCell id="8XMEdb07caAXs98eFKaU-2" value="maxNeg = N" style="rounded=0;whiteSpace=wrap;html=1;" vertex="1" parent="19fOecIbFHl0vKgOHbhd-2">
          <mxGeometry x="10" y="219" width="87" height="30" as="geometry" />
        </mxCell>
        <mxCell id="8XMEdb07caAXs98eFKaU-3" value="" style="rounded=0;whiteSpace=wrap;html=1;" vertex="1" parent="19fOecIbFHl0vKgOHbhd-2">
          <mxGeometry x="197" y="205" width="120" height="90" as="geometry" />
        </mxCell>
        <mxCell id="8XMEdb07caAXs98eFKaU-4" value="N &amp;gt; maxNeg" style="rhombus;whiteSpace=wrap;html=1;" vertex="1" parent="19fOecIbFHl0vKgOHbhd-2">
          <mxGeometry x="216" y="165" width="87" height="80" as="geometry" />
        </mxCell>
        <mxCell id="8XMEdb07caAXs98eFKaU-5" value="maxNeg = N" style="rounded=0;whiteSpace=wrap;html=1;" vertex="1" parent="19fOecIbFHl0vKgOHbhd-2">
          <mxGeometry x="147" y="235" width="87" height="30" as="geometry" />
        </mxCell>
        <mxCell id="8XMEdb07caAXs98eFKaU-6" value="N &amp;lt; 0" style="rhombus;whiteSpace=wrap;html=1;fontFamily=Helvetica;fontSize=11;fontColor=default;" vertex="1" parent="19fOecIbFHl0vKgOHbhd-2">
          <mxGeometry x="282" y="50" width="80" height="80" as="geometry" />
        </mxCell>
        <mxCell id="19fOecIbFHl0vKgOHbhd-16" value="" style="endArrow=none;html=1;rounded=0;labelBackgroundColor=default;strokeColor=default;fontFamily=Helvetica;fontSize=11;fontColor=default;shape=connector;entryX=0.5;entryY=1;entryDx=0;entryDy=0;exitX=0.521;exitY=-0.007;exitDx=0;exitDy=0;exitPerimeter=0;" parent="19fOecIbFHl0vKgOHbhd-1" source="19fOecIbFHl0vKgOHbhd-30" edge="1">
          <mxGeometry width="50" height="50" relative="1" as="geometry">
            <mxPoint x="399" y="399" as="sourcePoint" />
            <mxPoint x="399.25" y="350" as="targetPoint" />
          </mxGeometry>
        </mxCell>
        <mxCell id="19fOecIbFHl0vKgOHbhd-17" value="&lt;h1&gt;Ejercicio 10&lt;/h1&gt;10)&amp;nbsp;Hacer un programa para ingresar una lista de números que finaliza cuando se ingresa un&lt;div&gt;cero, informar el máximo de los negativos y el mínimo de los positivos.&lt;/div&gt;&lt;div&gt;Ejemplo: 5, 8, 12, 2, -10, 15, -20, 8, -3, 24, 0. Máximo Negativo -3. Mínimo Positivo 2.&lt;/div&gt;&lt;div&gt;&lt;br&gt;&lt;/div&gt;&lt;div&gt;&lt;br&gt;&lt;/div&gt;&lt;div&gt;&lt;br&gt;&lt;/div&gt;&lt;span style=&quot;box-sizing: border-box; color: transparent; position: absolute; cursor: text; transform-origin: left top; top: 0px; height: 0px; font-family: sans-serif; font-size: medium; background-color: rgb(200, 200, 200);&quot; id=&quot;page10R_mcid19&quot; class=&quot;markedContent&quot;&gt;&lt;br style=&quot;box-sizing: border-box;&quot; role=&quot;presentation&quot;&gt;&lt;span style=&quot;box-sizing: border-box; position: absolute; cursor: text; transform-origin: left top; left: 130.493px; top: 677.077px; font-size: 18.4px; transform: scaleX(0.924194) translateY(-1.38px) translateX(-141.196px); padding: 1.38px 616.477px 1.38px 141.196px;&quot; dir=&quot;ltr&quot; role=&quot;presentation&quot;&gt;&lt;br&gt;&lt;/span&gt;&lt;/span&gt;" style="text;html=1;strokeColor=none;fillColor=none;spacing=5;spacingTop=-20;whiteSpace=wrap;overflow=hidden;rounded=0;" parent="19fOecIbFHl0vKgOHbhd-1" vertex="1">
          <mxGeometry x="10" y="10" width="820" height="100" as="geometry" />
        </mxCell>
        <mxCell id="19fOecIbFHl0vKgOHbhd-18" value="Programación I - Guia 4 - Ciclos&lt;br&gt;&lt;div style=&quot;text-align: left;&quot;&gt;&lt;span style=&quot;background-color: initial;&quot;&gt;Facundo Masino&lt;/span&gt;&lt;/div&gt;" style="text;html=1;strokeColor=none;fillColor=none;align=center;verticalAlign=middle;whiteSpace=wrap;rounded=0;fontSize=11;fontFamily=Helvetica;fontColor=default;" parent="19fOecIbFHl0vKgOHbhd-1" vertex="1">
          <mxGeometry x="658" y="11" width="160" height="30" as="geometry" />
        </mxCell>
        <mxCell id="19fOecIbFHl0vKgOHbhd-19" value="FIN" style="ellipse;whiteSpace=wrap;html=1;fontStyle=1;startSize=23;" parent="19fOecIbFHl0vKgOHbhd-1" vertex="1">
          <mxGeometry x="359.25" y="990" width="80" height="80" as="geometry" />
        </mxCell>
        <mxCell id="19fOecIbFHl0vKgOHbhd-20" value="INICIO" style="ellipse;whiteSpace=wrap;html=1;aspect=fixed;fontFamily=Helvetica;fontSize=11;fontColor=default;" parent="19fOecIbFHl0vKgOHbhd-1" vertex="1">
          <mxGeometry x="358" y="160" width="80" height="80" as="geometry" />
        </mxCell>
        <mxCell id="19fOecIbFHl0vKgOHbhd-21" style="edgeStyle=orthogonalEdgeStyle;shape=connector;rounded=0;orthogonalLoop=1;jettySize=auto;html=1;entryX=0.5;entryY=1;entryDx=0;entryDy=0;labelBackgroundColor=default;strokeColor=default;fontFamily=Helvetica;fontSize=11;fontColor=default;endArrow=none;endFill=0;" parent="19fOecIbFHl0vKgOHbhd-1" source="19fOecIbFHl0vKgOHbhd-22" target="19fOecIbFHl0vKgOHbhd-20" edge="1">
          <mxGeometry relative="1" as="geometry" />
        </mxCell>
        <mxCell id="19fOecIbFHl0vKgOHbhd-22" value="N" style="shape=trapezoid;perimeter=trapezoidPerimeter;whiteSpace=wrap;html=1;fixedSize=1;direction=west;" parent="19fOecIbFHl0vKgOHbhd-1" vertex="1">
          <mxGeometry x="314" y="260" width="170" height="40" as="geometry" />
        </mxCell>
        <mxCell id="8XMEdb07caAXs98eFKaU-10" style="edgeStyle=orthogonalEdgeStyle;shape=connector;rounded=0;orthogonalLoop=1;jettySize=auto;html=1;entryX=0.5;entryY=0;entryDx=0;entryDy=0;labelBackgroundColor=default;strokeColor=default;fontFamily=Helvetica;fontSize=11;fontColor=default;endArrow=none;endFill=0;" edge="1" parent="19fOecIbFHl0vKgOHbhd-1" source="19fOecIbFHl0vKgOHbhd-25" target="19fOecIbFHl0vKgOHbhd-22">
          <mxGeometry relative="1" as="geometry" />
        </mxCell>
        <mxCell id="19fOecIbFHl0vKgOHbhd-25" value="maxNeg = 0" style="rounded=0;whiteSpace=wrap;html=1;" parent="19fOecIbFHl0vKgOHbhd-1" vertex="1">
          <mxGeometry x="355.75" y="340" width="87" height="30" as="geometry" />
        </mxCell>
        <mxCell id="19fOecIbFHl0vKgOHbhd-26" style="edgeStyle=orthogonalEdgeStyle;rounded=0;orthogonalLoop=1;jettySize=auto;html=1;endArrow=none;endFill=0;" parent="19fOecIbFHl0vKgOHbhd-1" source="19fOecIbFHl0vKgOHbhd-28" edge="1">
          <mxGeometry relative="1" as="geometry">
            <mxPoint x="399.25" y="880" as="targetPoint" />
          </mxGeometry>
        </mxCell>
        <mxCell id="19fOecIbFHl0vKgOHbhd-27" style="edgeStyle=orthogonalEdgeStyle;shape=connector;rounded=0;orthogonalLoop=1;jettySize=auto;html=1;entryX=0.5;entryY=0;entryDx=0;entryDy=0;labelBackgroundColor=default;strokeColor=default;fontFamily=Helvetica;fontSize=11;fontColor=default;endArrow=none;endFill=0;" parent="19fOecIbFHl0vKgOHbhd-1" source="19fOecIbFHl0vKgOHbhd-28" target="19fOecIbFHl0vKgOHbhd-19" edge="1">
          <mxGeometry relative="1" as="geometry" />
        </mxCell>
        <mxCell id="19fOecIbFHl0vKgOHbhd-28" value="&quot;Máximo Neg: &quot;, maxNeg, &quot; minPos: &quot;, minPos" style="shape=trapezoid;perimeter=trapezoidPerimeter;whiteSpace=wrap;html=1;fixedSize=1;direction=east;" parent="19fOecIbFHl0vKgOHbhd-1" vertex="1">
          <mxGeometry x="255.5" y="910" width="287.5" height="40" as="geometry" />
        </mxCell>
        <mxCell id="19fOecIbFHl0vKgOHbhd-29" style="edgeStyle=orthogonalEdgeStyle;shape=connector;rounded=0;orthogonalLoop=1;jettySize=auto;html=1;entryX=0.502;entryY=0;entryDx=0;entryDy=0;entryPerimeter=0;labelBackgroundColor=default;strokeColor=default;fontFamily=Helvetica;fontSize=11;fontColor=default;endArrow=none;endFill=0;" parent="19fOecIbFHl0vKgOHbhd-1" source="19fOecIbFHl0vKgOHbhd-30" target="19fOecIbFHl0vKgOHbhd-2" edge="1">
          <mxGeometry relative="1" as="geometry">
            <Array as="points">
              <mxPoint x="398" y="450" />
            </Array>
          </mxGeometry>
        </mxCell>
        <mxCell id="19fOecIbFHl0vKgOHbhd-30" value="minPos = 0" style="rounded=0;whiteSpace=wrap;html=1;" parent="19fOecIbFHl0vKgOHbhd-1" vertex="1">
          <mxGeometry x="354.5" y="395" width="87" height="30" as="geometry" />
        </mxCell>
      </root>
    </mxGraphModel>
  </diagram>
  <diagram name="13" id="XszLngRvJpH3d3Nq-sSw">
    <mxGraphModel grid="1" page="1" gridSize="10" guides="1" tooltips="1" connect="1" arrows="1" fold="1" pageScale="1" pageWidth="850" pageHeight="1100" math="0" shadow="0">
      <root>
        <mxCell id="BT6MbcjFWQG1R-2Btj71-0" />
        <mxCell id="BT6MbcjFWQG1R-2Btj71-1" parent="BT6MbcjFWQG1R-2Btj71-0" />
        <mxCell id="8NZAWoBqYieN9EJCM1pC-6" value="" style="rounded=0;whiteSpace=wrap;html=1;" vertex="1" parent="BT6MbcjFWQG1R-2Btj71-1">
          <mxGeometry x="300" y="932" width="230" height="80" as="geometry" />
        </mxCell>
        <mxCell id="BT6MbcjFWQG1R-2Btj71-2" value="N != 0" style="swimlane;whiteSpace=wrap;html=1;swimlaneLine=1;container=0;" vertex="1" parent="BT6MbcjFWQG1R-2Btj71-1">
          <mxGeometry x="80" y="450" width="680" height="430" as="geometry">
            <mxRectangle x="180" y="190" width="140" height="30" as="alternateBounds" />
          </mxGeometry>
        </mxCell>
        <mxCell id="BT6MbcjFWQG1R-2Btj71-3" value="" style="rounded=0;whiteSpace=wrap;html=1;fontFamily=Helvetica;fontSize=11;fontColor=default;" vertex="1" parent="BT6MbcjFWQG1R-2Btj71-2">
          <mxGeometry x="163" y="110" width="336" height="251" as="geometry" />
        </mxCell>
        <mxCell id="BT6MbcjFWQG1R-2Btj71-6" value="prevN = N" style="rounded=0;whiteSpace=wrap;html=1;" vertex="1" parent="BT6MbcjFWQG1R-2Btj71-2">
          <mxGeometry x="453" y="220.5" width="87" height="30" as="geometry" />
        </mxCell>
        <mxCell id="BT6MbcjFWQG1R-2Btj71-7" style="edgeStyle=orthogonalEdgeStyle;shape=connector;rounded=0;orthogonalLoop=1;jettySize=auto;html=1;entryX=0.5;entryY=1;entryDx=0;entryDy=0;labelBackgroundColor=default;strokeColor=default;fontFamily=Helvetica;fontSize=11;fontColor=default;endArrow=none;endFill=0;" edge="1" parent="BT6MbcjFWQG1R-2Btj71-2" source="BT6MbcjFWQG1R-2Btj71-8" target="BT6MbcjFWQG1R-2Btj71-3">
          <mxGeometry relative="1" as="geometry" />
        </mxCell>
        <mxCell id="BT6MbcjFWQG1R-2Btj71-8" value="N" style="shape=trapezoid;perimeter=trapezoidPerimeter;whiteSpace=wrap;html=1;fixedSize=1;direction=west;" vertex="1" parent="BT6MbcjFWQG1R-2Btj71-2">
          <mxGeometry x="250" y="380" width="170" height="40" as="geometry" />
        </mxCell>
        <mxCell id="BT6MbcjFWQG1R-2Btj71-12" value="" style="rounded=0;whiteSpace=wrap;html=1;" vertex="1" parent="BT6MbcjFWQG1R-2Btj71-2">
          <mxGeometry x="70" y="164" width="203" height="162" as="geometry" />
        </mxCell>
        <mxCell id="BT6MbcjFWQG1R-2Btj71-13" value="N &amp;gt;= prevN&lt;br&gt;&amp;amp;&amp;amp; ordenados" style="rhombus;whiteSpace=wrap;html=1;" vertex="1" parent="BT6MbcjFWQG1R-2Btj71-2">
          <mxGeometry x="110" y="124" width="106" height="86" as="geometry" />
        </mxCell>
        <mxCell id="BT6MbcjFWQG1R-2Btj71-14" value="prevN = N" style="rounded=0;whiteSpace=wrap;html=1;" vertex="1" parent="BT6MbcjFWQG1R-2Btj71-2">
          <mxGeometry x="23" y="226" width="100" height="30" as="geometry" />
        </mxCell>
        <mxCell id="BT6MbcjFWQG1R-2Btj71-18" value="prevN != 0" style="rhombus;whiteSpace=wrap;html=1;fontFamily=Helvetica;fontSize=11;fontColor=default;" vertex="1" parent="BT6MbcjFWQG1R-2Btj71-2">
          <mxGeometry x="290" y="70" width="80" height="80" as="geometry" />
        </mxCell>
        <mxCell id="8NZAWoBqYieN9EJCM1pC-2" value="ordenados = false" style="rounded=0;whiteSpace=wrap;html=1;" vertex="1" parent="BT6MbcjFWQG1R-2Btj71-2">
          <mxGeometry x="220" y="226" width="100" height="30" as="geometry" />
        </mxCell>
        <mxCell id="BT6MbcjFWQG1R-2Btj71-19" value="" style="endArrow=none;html=1;rounded=0;labelBackgroundColor=default;strokeColor=default;fontFamily=Helvetica;fontSize=11;fontColor=default;shape=connector;entryX=0.5;entryY=1;entryDx=0;entryDy=0;exitX=0.521;exitY=-0.007;exitDx=0;exitDy=0;exitPerimeter=0;" parent="BT6MbcjFWQG1R-2Btj71-1" source="BT6MbcjFWQG1R-2Btj71-32" edge="1">
          <mxGeometry width="50" height="50" relative="1" as="geometry">
            <mxPoint x="399" y="399" as="sourcePoint" />
            <mxPoint x="399.25" y="350" as="targetPoint" />
          </mxGeometry>
        </mxCell>
        <mxCell id="BT6MbcjFWQG1R-2Btj71-20" value="&lt;h1&gt;Ejercicio 13&lt;/h1&gt;&lt;div&gt;&lt;div&gt;13) Hacer un programa para ingresar una lista de números que finaliza cuando se ingresa un&lt;/div&gt;&lt;div&gt;cero, informar si todos están ordenados en forma creciente. En caso de haber dos números&lt;/div&gt;&lt;div&gt;“empatados” considerarlos como crecientes. Por ejemplo si la lista fuera:&lt;/div&gt;&lt;div&gt;Ejemplo 1: -10, 1, 5, 7, 15, 18, 20, 23, 0 se emitirá un cartel: “Conjunto Ordenado”&lt;/div&gt;&lt;div&gt;Ejemplo 2: 10, 10, 15, 20, 25, 25, 28, 33, 0 se emitirá un cartel: “Conjunto Ordenado”&lt;/div&gt;&lt;div&gt;Ejemplo 3: 10, 1, 15, 7, -15, 18, 20, 23, 0 se emitirá un cartel: “Conjunto No Ordenado”&lt;/div&gt;&lt;/div&gt;&lt;div&gt;&lt;br&gt;&lt;/div&gt;&lt;div&gt;&lt;br&gt;&lt;/div&gt;&lt;span style=&quot;box-sizing: border-box; color: transparent; position: absolute; cursor: text; transform-origin: left top; top: 0px; height: 0px; font-family: sans-serif; font-size: medium; background-color: rgb(200, 200, 200);&quot; id=&quot;page10R_mcid19&quot; class=&quot;markedContent&quot;&gt;&lt;br style=&quot;box-sizing: border-box;&quot; role=&quot;presentation&quot;&gt;&lt;span style=&quot;box-sizing: border-box; position: absolute; cursor: text; transform-origin: left top; left: 130.493px; top: 677.077px; font-size: 18.4px; transform: scaleX(0.924194) translateY(-1.38px) translateX(-141.196px); padding: 1.38px 616.477px 1.38px 141.196px;&quot; dir=&quot;ltr&quot; role=&quot;presentation&quot;&gt;&lt;br&gt;&lt;/span&gt;&lt;/span&gt;" style="text;html=1;strokeColor=none;fillColor=none;spacing=5;spacingTop=-20;whiteSpace=wrap;overflow=hidden;rounded=0;" parent="BT6MbcjFWQG1R-2Btj71-1" vertex="1">
          <mxGeometry x="10" y="10" width="820" height="140" as="geometry" />
        </mxCell>
        <mxCell id="BT6MbcjFWQG1R-2Btj71-21" value="Programación I - Guia 4 - Ciclos&lt;br&gt;&lt;div style=&quot;text-align: left;&quot;&gt;&lt;span style=&quot;background-color: initial;&quot;&gt;Facundo Masino&lt;/span&gt;&lt;/div&gt;" style="text;html=1;strokeColor=none;fillColor=none;align=center;verticalAlign=middle;whiteSpace=wrap;rounded=0;fontSize=11;fontFamily=Helvetica;fontColor=default;" parent="BT6MbcjFWQG1R-2Btj71-1" vertex="1">
          <mxGeometry x="658" y="11" width="160" height="30" as="geometry" />
        </mxCell>
        <mxCell id="8NZAWoBqYieN9EJCM1pC-8" style="edgeStyle=orthogonalEdgeStyle;rounded=0;orthogonalLoop=1;jettySize=auto;html=1;entryX=0.5;entryY=1;entryDx=0;entryDy=0;endArrow=none;endFill=0;" edge="1" parent="BT6MbcjFWQG1R-2Btj71-1" source="BT6MbcjFWQG1R-2Btj71-22" target="8NZAWoBqYieN9EJCM1pC-6">
          <mxGeometry relative="1" as="geometry" />
        </mxCell>
        <mxCell id="BT6MbcjFWQG1R-2Btj71-22" value="FIN" style="ellipse;whiteSpace=wrap;html=1;fontStyle=1;startSize=23;" parent="BT6MbcjFWQG1R-2Btj71-1" vertex="1">
          <mxGeometry x="384.63" y="1032" width="60.75" height="60" as="geometry" />
        </mxCell>
        <mxCell id="BT6MbcjFWQG1R-2Btj71-23" value="INICIO" style="ellipse;whiteSpace=wrap;html=1;aspect=fixed;fontFamily=Helvetica;fontSize=11;fontColor=default;" parent="BT6MbcjFWQG1R-2Btj71-1" vertex="1">
          <mxGeometry x="358" y="160" width="80" height="80" as="geometry" />
        </mxCell>
        <mxCell id="BT6MbcjFWQG1R-2Btj71-24" style="edgeStyle=orthogonalEdgeStyle;shape=connector;rounded=0;orthogonalLoop=1;jettySize=auto;html=1;entryX=0.5;entryY=1;entryDx=0;entryDy=0;labelBackgroundColor=default;strokeColor=default;fontFamily=Helvetica;fontSize=11;fontColor=default;endArrow=none;endFill=0;" parent="BT6MbcjFWQG1R-2Btj71-1" source="BT6MbcjFWQG1R-2Btj71-25" target="BT6MbcjFWQG1R-2Btj71-23" edge="1">
          <mxGeometry relative="1" as="geometry" />
        </mxCell>
        <mxCell id="BT6MbcjFWQG1R-2Btj71-25" value="N" style="shape=trapezoid;perimeter=trapezoidPerimeter;whiteSpace=wrap;html=1;fixedSize=1;direction=west;" parent="BT6MbcjFWQG1R-2Btj71-1" vertex="1">
          <mxGeometry x="314" y="260" width="170" height="40" as="geometry" />
        </mxCell>
        <mxCell id="BT6MbcjFWQG1R-2Btj71-26" style="edgeStyle=orthogonalEdgeStyle;shape=connector;rounded=0;orthogonalLoop=1;jettySize=auto;html=1;entryX=0.5;entryY=0;entryDx=0;entryDy=0;labelBackgroundColor=default;strokeColor=default;fontFamily=Helvetica;fontSize=11;fontColor=default;endArrow=none;endFill=0;" parent="BT6MbcjFWQG1R-2Btj71-1" source="BT6MbcjFWQG1R-2Btj71-27" target="BT6MbcjFWQG1R-2Btj71-25" edge="1">
          <mxGeometry relative="1" as="geometry" />
        </mxCell>
        <mxCell id="BT6MbcjFWQG1R-2Btj71-27" value="ordenados = true" style="rounded=0;whiteSpace=wrap;html=1;" parent="BT6MbcjFWQG1R-2Btj71-1" vertex="1">
          <mxGeometry x="347.13" y="340" width="104.25" height="30" as="geometry" />
        </mxCell>
        <mxCell id="BT6MbcjFWQG1R-2Btj71-30" value="&quot;Conjunto ordenado&quot;" style="shape=trapezoid;perimeter=trapezoidPerimeter;whiteSpace=wrap;html=1;fixedSize=1;direction=east;" parent="BT6MbcjFWQG1R-2Btj71-1" vertex="1">
          <mxGeometry x="226.88" y="963" width="144.5" height="40" as="geometry" />
        </mxCell>
        <mxCell id="BT6MbcjFWQG1R-2Btj71-31" style="edgeStyle=orthogonalEdgeStyle;shape=connector;rounded=0;orthogonalLoop=1;jettySize=auto;html=1;entryX=0.502;entryY=0;entryDx=0;entryDy=0;entryPerimeter=0;labelBackgroundColor=default;strokeColor=default;fontFamily=Helvetica;fontSize=11;fontColor=default;endArrow=none;endFill=0;" parent="BT6MbcjFWQG1R-2Btj71-1" source="BT6MbcjFWQG1R-2Btj71-32" target="BT6MbcjFWQG1R-2Btj71-2" edge="1">
          <mxGeometry relative="1" as="geometry">
            <Array as="points">
              <mxPoint x="398" y="450" />
            </Array>
          </mxGeometry>
        </mxCell>
        <mxCell id="BT6MbcjFWQG1R-2Btj71-32" value="prevN = 0" style="rounded=0;whiteSpace=wrap;html=1;" vertex="1" parent="BT6MbcjFWQG1R-2Btj71-1">
          <mxGeometry x="354.5" y="395" width="87" height="30" as="geometry" />
        </mxCell>
        <mxCell id="8NZAWoBqYieN9EJCM1pC-9" style="edgeStyle=orthogonalEdgeStyle;rounded=0;orthogonalLoop=1;jettySize=auto;html=1;endArrow=none;endFill=0;" edge="1" parent="BT6MbcjFWQG1R-2Btj71-1" source="8NZAWoBqYieN9EJCM1pC-4">
          <mxGeometry relative="1" as="geometry">
            <mxPoint x="411.3799999999999" y="880" as="targetPoint" />
          </mxGeometry>
        </mxCell>
        <mxCell id="8NZAWoBqYieN9EJCM1pC-4" value="ordenado" style="rhombus;whiteSpace=wrap;html=1;" vertex="1" parent="BT6MbcjFWQG1R-2Btj71-1">
          <mxGeometry x="371.38" y="898" width="80" height="70" as="geometry" />
        </mxCell>
        <mxCell id="8NZAWoBqYieN9EJCM1pC-5" value="&quot;Conjunto no ordenado&quot;" style="shape=trapezoid;perimeter=trapezoidPerimeter;whiteSpace=wrap;html=1;fixedSize=1;direction=east;" vertex="1" parent="BT6MbcjFWQG1R-2Btj71-1">
          <mxGeometry x="460" y="962" width="144.5" height="40" as="geometry" />
        </mxCell>
      </root>
    </mxGraphModel>
  </diagram>
  <diagram name="15" id="fUwo0QOGNaFldFS-Wa5x">
    <mxGraphModel grid="1" page="1" gridSize="10" guides="1" tooltips="1" connect="1" arrows="1" fold="1" pageScale="1" pageWidth="850" pageHeight="1100" math="0" shadow="0">
      <root>
        <mxCell id="HNhwlP1-m0hOkSx8LW2P-0" />
        <mxCell id="HNhwlP1-m0hOkSx8LW2P-1" parent="HNhwlP1-m0hOkSx8LW2P-0" />
        <mxCell id="HNhwlP1-m0hOkSx8LW2P-3" value="!repetido" style="swimlane;whiteSpace=wrap;html=1;swimlaneLine=1;container=0;" vertex="1" parent="HNhwlP1-m0hOkSx8LW2P-1">
          <mxGeometry x="79" y="450" width="680" height="430" as="geometry">
            <mxRectangle x="180" y="190" width="140" height="30" as="alternateBounds" />
          </mxGeometry>
        </mxCell>
        <mxCell id="3hJbfUqEVlIO2HomjZWc-3" value="" style="rounded=0;whiteSpace=wrap;html=1;fontFamily=Helvetica;fontSize=11;fontColor=default;" vertex="1" parent="HNhwlP1-m0hOkSx8LW2P-3">
          <mxGeometry x="243" y="346" width="170" height="64" as="geometry" />
        </mxCell>
        <mxCell id="HNhwlP1-m0hOkSx8LW2P-4" value="" style="rounded=0;whiteSpace=wrap;html=1;fontFamily=Helvetica;fontSize=11;fontColor=default;" vertex="1" parent="HNhwlP1-m0hOkSx8LW2P-3">
          <mxGeometry x="163" y="93" width="336" height="140" as="geometry" />
        </mxCell>
        <mxCell id="HNhwlP1-m0hOkSx8LW2P-6" style="edgeStyle=orthogonalEdgeStyle;shape=connector;rounded=0;orthogonalLoop=1;jettySize=auto;html=1;entryX=0.5;entryY=1;entryDx=0;entryDy=0;labelBackgroundColor=default;strokeColor=default;fontFamily=Helvetica;fontSize=11;fontColor=default;endArrow=none;endFill=0;" edge="1" parent="HNhwlP1-m0hOkSx8LW2P-3" source="HNhwlP1-m0hOkSx8LW2P-7" target="HNhwlP1-m0hOkSx8LW2P-4">
          <mxGeometry relative="1" as="geometry" />
        </mxCell>
        <mxCell id="HNhwlP1-m0hOkSx8LW2P-7" value="N" style="shape=trapezoid;perimeter=trapezoidPerimeter;whiteSpace=wrap;html=1;fixedSize=1;direction=west;" vertex="1" parent="HNhwlP1-m0hOkSx8LW2P-3">
          <mxGeometry x="246" y="253" width="170" height="27" as="geometry" />
        </mxCell>
        <mxCell id="HNhwlP1-m0hOkSx8LW2P-11" value="N &amp;gt; max" style="rhombus;whiteSpace=wrap;html=1;fontFamily=Helvetica;fontSize=11;fontColor=default;" vertex="1" parent="HNhwlP1-m0hOkSx8LW2P-3">
          <mxGeometry x="290" y="53" width="80" height="80" as="geometry" />
        </mxCell>
        <mxCell id="3hJbfUqEVlIO2HomjZWc-1" value="max = N" style="rounded=0;whiteSpace=wrap;html=1;" vertex="1" parent="HNhwlP1-m0hOkSx8LW2P-3">
          <mxGeometry x="120" y="148" width="87" height="30" as="geometry" />
        </mxCell>
        <mxCell id="3hJbfUqEVlIO2HomjZWc-7" style="edgeStyle=orthogonalEdgeStyle;shape=connector;rounded=0;orthogonalLoop=1;jettySize=auto;html=1;entryX=0.5;entryY=0;entryDx=0;entryDy=0;labelBackgroundColor=default;strokeColor=default;fontFamily=Helvetica;fontSize=11;fontColor=default;endArrow=none;endFill=0;" edge="1" parent="HNhwlP1-m0hOkSx8LW2P-3" source="3hJbfUqEVlIO2HomjZWc-2" target="HNhwlP1-m0hOkSx8LW2P-7">
          <mxGeometry relative="1" as="geometry" />
        </mxCell>
        <mxCell id="3hJbfUqEVlIO2HomjZWc-2" value="N == prevN" style="rhombus;whiteSpace=wrap;html=1;fontFamily=Helvetica;fontSize=11;fontColor=default;" vertex="1" parent="HNhwlP1-m0hOkSx8LW2P-3">
          <mxGeometry x="291" y="305" width="80" height="80" as="geometry" />
        </mxCell>
        <mxCell id="3hJbfUqEVlIO2HomjZWc-4" value="prevN = N" style="rounded=0;whiteSpace=wrap;html=1;" vertex="1" parent="HNhwlP1-m0hOkSx8LW2P-3">
          <mxGeometry x="370" y="360" width="87" height="30" as="geometry" />
        </mxCell>
        <mxCell id="3hJbfUqEVlIO2HomjZWc-5" value="repetido = true" style="rounded=0;whiteSpace=wrap;html=1;" vertex="1" parent="HNhwlP1-m0hOkSx8LW2P-3">
          <mxGeometry x="185.75" y="360" width="104.25" height="30" as="geometry" />
        </mxCell>
        <mxCell id="HNhwlP1-m0hOkSx8LW2P-13" value="" style="endArrow=none;html=1;rounded=0;labelBackgroundColor=default;strokeColor=default;fontFamily=Helvetica;fontSize=11;fontColor=default;shape=connector;entryX=0.5;entryY=1;entryDx=0;entryDy=0;exitX=0.521;exitY=-0.007;exitDx=0;exitDy=0;exitPerimeter=0;" parent="HNhwlP1-m0hOkSx8LW2P-1" source="HNhwlP1-m0hOkSx8LW2P-25" edge="1">
          <mxGeometry width="50" height="50" relative="1" as="geometry">
            <mxPoint x="399" y="399" as="sourcePoint" />
            <mxPoint x="399.25" y="350" as="targetPoint" />
          </mxGeometry>
        </mxCell>
        <mxCell id="HNhwlP1-m0hOkSx8LW2P-14" value="&lt;h1&gt;Ejercicio 15&lt;/h1&gt;&lt;div&gt;&lt;div&gt;15)Hacer un programa para ingresar una lista de números que finaliza cuando se ingresan&amp;nbsp;&lt;span style=&quot;background-color: initial;&quot;&gt;dos números consecutivos iguales, y luego informar el máximo. Cuando se ingresa el&amp;nbsp;&lt;/span&gt;&lt;span style=&quot;background-color: initial;&quot;&gt;número repetido el mismo debe ser descartado.&lt;/span&gt;&lt;/div&gt;&lt;div&gt;Ejemplo: 5, 10, 20, 8, 25, 13, 35, -8, -5, 22, 22. Se listará Máximo 35.&lt;/div&gt;&lt;div&gt;En este caso, el segundo número 22 no se analiza, solo sirve para finalizar el ingreso.&lt;/div&gt;&lt;div&gt;Ejemplo: 5, 10, 20, 8, 55, 13, 55, -8, -5, 33, 33. Se listará Máximo 55.&lt;/div&gt;&lt;div&gt;En este caso, el segundo número 33 no se analiza, solo sirve para finalizar el ingreso.&lt;/div&gt;&lt;div&gt;&lt;br&gt;&lt;/div&gt;&lt;/div&gt;&lt;div&gt;&lt;br&gt;&lt;/div&gt;&lt;span style=&quot;box-sizing: border-box; color: transparent; position: absolute; cursor: text; transform-origin: left top; top: 0px; height: 0px; font-family: sans-serif; font-size: medium; background-color: rgb(200, 200, 200);&quot; id=&quot;page10R_mcid19&quot; class=&quot;markedContent&quot;&gt;&lt;br style=&quot;box-sizing: border-box;&quot; role=&quot;presentation&quot;&gt;&lt;span style=&quot;box-sizing: border-box; position: absolute; cursor: text; transform-origin: left top; left: 130.493px; top: 677.077px; font-size: 18.4px; transform: scaleX(0.924194) translateY(-1.38px) translateX(-141.196px); padding: 1.38px 616.477px 1.38px 141.196px;&quot; dir=&quot;ltr&quot; role=&quot;presentation&quot;&gt;&lt;br&gt;&lt;/span&gt;&lt;/span&gt;" style="text;html=1;strokeColor=none;fillColor=none;spacing=5;spacingTop=-20;whiteSpace=wrap;overflow=hidden;rounded=0;" parent="HNhwlP1-m0hOkSx8LW2P-1" vertex="1">
          <mxGeometry x="10" y="10" width="820" height="140" as="geometry" />
        </mxCell>
        <mxCell id="HNhwlP1-m0hOkSx8LW2P-15" value="Programación I - Guia 4 - Ciclos&lt;br&gt;&lt;div style=&quot;text-align: left;&quot;&gt;&lt;span style=&quot;background-color: initial;&quot;&gt;Facundo Masino&lt;/span&gt;&lt;/div&gt;" style="text;html=1;strokeColor=none;fillColor=none;align=center;verticalAlign=middle;whiteSpace=wrap;rounded=0;fontSize=11;fontFamily=Helvetica;fontColor=default;" parent="HNhwlP1-m0hOkSx8LW2P-1" vertex="1">
          <mxGeometry x="658" y="11" width="160" height="30" as="geometry" />
        </mxCell>
        <mxCell id="3hJbfUqEVlIO2HomjZWc-8" style="edgeStyle=orthogonalEdgeStyle;shape=connector;rounded=0;orthogonalLoop=1;jettySize=auto;html=1;entryX=0.5;entryY=1;entryDx=0;entryDy=0;labelBackgroundColor=default;strokeColor=default;fontFamily=Helvetica;fontSize=11;fontColor=default;endArrow=none;endFill=0;" edge="1" parent="HNhwlP1-m0hOkSx8LW2P-1" source="HNhwlP1-m0hOkSx8LW2P-17" target="HNhwlP1-m0hOkSx8LW2P-28">
          <mxGeometry relative="1" as="geometry" />
        </mxCell>
        <mxCell id="HNhwlP1-m0hOkSx8LW2P-17" value="FIN" style="ellipse;whiteSpace=wrap;html=1;fontStyle=1;startSize=23;" parent="HNhwlP1-m0hOkSx8LW2P-1" vertex="1">
          <mxGeometry x="380.75" y="960" width="60.75" height="60" as="geometry" />
        </mxCell>
        <mxCell id="HNhwlP1-m0hOkSx8LW2P-18" value="INICIO" style="ellipse;whiteSpace=wrap;html=1;aspect=fixed;fontFamily=Helvetica;fontSize=11;fontColor=default;" parent="HNhwlP1-m0hOkSx8LW2P-1" vertex="1">
          <mxGeometry x="358" y="160" width="80" height="80" as="geometry" />
        </mxCell>
        <mxCell id="HNhwlP1-m0hOkSx8LW2P-19" style="edgeStyle=orthogonalEdgeStyle;shape=connector;rounded=0;orthogonalLoop=1;jettySize=auto;html=1;entryX=0.5;entryY=1;entryDx=0;entryDy=0;labelBackgroundColor=default;strokeColor=default;fontFamily=Helvetica;fontSize=11;fontColor=default;endArrow=none;endFill=0;" parent="HNhwlP1-m0hOkSx8LW2P-1" source="HNhwlP1-m0hOkSx8LW2P-20" target="HNhwlP1-m0hOkSx8LW2P-18" edge="1">
          <mxGeometry relative="1" as="geometry" />
        </mxCell>
        <mxCell id="HNhwlP1-m0hOkSx8LW2P-20" value="N" style="shape=trapezoid;perimeter=trapezoidPerimeter;whiteSpace=wrap;html=1;fixedSize=1;direction=west;" parent="HNhwlP1-m0hOkSx8LW2P-1" vertex="1">
          <mxGeometry x="314" y="260" width="170" height="40" as="geometry" />
        </mxCell>
        <mxCell id="HNhwlP1-m0hOkSx8LW2P-21" style="edgeStyle=orthogonalEdgeStyle;shape=connector;rounded=0;orthogonalLoop=1;jettySize=auto;html=1;entryX=0.5;entryY=0;entryDx=0;entryDy=0;labelBackgroundColor=default;strokeColor=default;fontFamily=Helvetica;fontSize=11;fontColor=default;endArrow=none;endFill=0;" parent="HNhwlP1-m0hOkSx8LW2P-1" source="HNhwlP1-m0hOkSx8LW2P-22" target="HNhwlP1-m0hOkSx8LW2P-20" edge="1">
          <mxGeometry relative="1" as="geometry" />
        </mxCell>
        <mxCell id="HNhwlP1-m0hOkSx8LW2P-22" value="repetido = false" style="rounded=0;whiteSpace=wrap;html=1;" parent="HNhwlP1-m0hOkSx8LW2P-1" vertex="1">
          <mxGeometry x="347.13" y="340" width="104.25" height="30" as="geometry" />
        </mxCell>
        <mxCell id="HNhwlP1-m0hOkSx8LW2P-24" style="edgeStyle=orthogonalEdgeStyle;shape=connector;rounded=0;orthogonalLoop=1;jettySize=auto;html=1;entryX=0.502;entryY=0;entryDx=0;entryDy=0;entryPerimeter=0;labelBackgroundColor=default;strokeColor=default;fontFamily=Helvetica;fontSize=11;fontColor=default;endArrow=none;endFill=0;" parent="HNhwlP1-m0hOkSx8LW2P-1" source="HNhwlP1-m0hOkSx8LW2P-25" target="HNhwlP1-m0hOkSx8LW2P-3" edge="1">
          <mxGeometry relative="1" as="geometry">
            <Array as="points">
              <mxPoint x="398" y="450" />
            </Array>
          </mxGeometry>
        </mxCell>
        <mxCell id="HNhwlP1-m0hOkSx8LW2P-25" value="prevN = N" style="rounded=0;whiteSpace=wrap;html=1;" parent="HNhwlP1-m0hOkSx8LW2P-1" vertex="1">
          <mxGeometry x="354.5" y="377" width="87" height="30" as="geometry" />
        </mxCell>
        <mxCell id="HNhwlP1-m0hOkSx8LW2P-26" style="edgeStyle=orthogonalEdgeStyle;rounded=0;orthogonalLoop=1;jettySize=auto;html=1;endArrow=none;endFill=0;" parent="HNhwlP1-m0hOkSx8LW2P-1" edge="1">
          <mxGeometry relative="1" as="geometry">
            <mxPoint x="411.3799999999999" y="880" as="targetPoint" />
            <mxPoint x="411.4000000000001" y="898.0174999999999" as="sourcePoint" />
          </mxGeometry>
        </mxCell>
        <mxCell id="HNhwlP1-m0hOkSx8LW2P-28" value="&quot;Máximo: &quot;, max" style="shape=trapezoid;perimeter=trapezoidPerimeter;whiteSpace=wrap;html=1;fixedSize=1;direction=east;" parent="HNhwlP1-m0hOkSx8LW2P-1" vertex="1">
          <mxGeometry x="339.5" y="899" width="144.5" height="40" as="geometry" />
        </mxCell>
        <mxCell id="3hJbfUqEVlIO2HomjZWc-0" value="max = N" style="rounded=0;whiteSpace=wrap;html=1;" vertex="1" parent="HNhwlP1-m0hOkSx8LW2P-1">
          <mxGeometry x="354.5" y="413" width="87" height="30" as="geometry" />
        </mxCell>
      </root>
    </mxGraphModel>
  </diagram>
  <diagram name="E20" id="Ps34GzDAqQqPE-IGorP9">
    <mxGraphModel grid="1" page="1" gridSize="10" guides="1" tooltips="1" connect="1" arrows="1" fold="1" pageScale="1" pageWidth="1100" pageHeight="1700" math="0" shadow="0">
      <root>
        <mxCell id="1glnriD-x2V1oVHe8acs-0" />
        <mxCell id="1glnriD-x2V1oVHe8acs-1" parent="1glnriD-x2V1oVHe8acs-0" />
        <mxCell id="1glnriD-x2V1oVHe8acs-2" value="nC != 0" style="swimlane;whiteSpace=wrap;html=1;swimlaneLine=1;container=0;" vertex="1" parent="1glnriD-x2V1oVHe8acs-1">
          <mxGeometry x="49" y="411" width="780" height="919" as="geometry">
            <mxRectangle x="180" y="190" width="140" height="30" as="alternateBounds" />
          </mxGeometry>
        </mxCell>
        <mxCell id="1glnriD-x2V1oVHe8acs-4" value="" style="rounded=0;whiteSpace=wrap;html=1;fontFamily=Helvetica;fontSize=11;fontColor=default;" vertex="1" parent="1glnriD-x2V1oVHe8acs-2">
          <mxGeometry x="226" y="89" width="336" height="257" as="geometry" />
        </mxCell>
        <mxCell id="1glnriD-x2V1oVHe8acs-7" value="kvC &amp;gt; 100" style="rhombus;whiteSpace=wrap;html=1;fontFamily=Helvetica;fontSize=11;fontColor=default;" vertex="1" parent="1glnriD-x2V1oVHe8acs-2">
          <mxGeometry x="358" y="49" width="80" height="80" as="geometry" />
        </mxCell>
        <mxCell id="1glnriD-x2V1oVHe8acs-8" value="kvCalc = kvC - 100" style="rounded=0;whiteSpace=wrap;html=1;" vertex="1" parent="1glnriD-x2V1oVHe8acs-2">
          <mxGeometry x="173" y="106" width="110" height="20" as="geometry" />
        </mxCell>
        <mxCell id="7RFTTP4zecLHW__Zrt79-1" value="consumoC = kvC * 10" style="rounded=0;whiteSpace=wrap;html=1;" vertex="1" parent="1glnriD-x2V1oVHe8acs-2">
          <mxGeometry x="505" y="211.5" width="130" height="22" as="geometry" />
        </mxCell>
        <mxCell id="7RFTTP4zecLHW__Zrt79-4" value="" style="rounded=0;whiteSpace=wrap;html=1;" vertex="1" parent="1glnriD-x2V1oVHe8acs-2">
          <mxGeometry x="133" y="199" width="190" height="120" as="geometry" />
        </mxCell>
        <mxCell id="7RFTTP4zecLHW__Zrt79-2" value="kvCalc &amp;gt; 100" style="rhombus;whiteSpace=wrap;html=1;fontFamily=Helvetica;fontSize=11;fontColor=default;" vertex="1" parent="1glnriD-x2V1oVHe8acs-2">
          <mxGeometry x="186" y="162" width="80" height="74" as="geometry" />
        </mxCell>
        <mxCell id="7RFTTP4zecLHW__Zrt79-3" value="consumoC = 100 * 10" style="rounded=0;whiteSpace=wrap;html=1;" vertex="1" parent="1glnriD-x2V1oVHe8acs-2">
          <mxGeometry x="173" y="133" width="130" height="22" as="geometry" />
        </mxCell>
        <mxCell id="7RFTTP4zecLHW__Zrt79-5" value="consumoC += kvCalc * 12" style="rounded=0;whiteSpace=wrap;html=1;" vertex="1" parent="1glnriD-x2V1oVHe8acs-2">
          <mxGeometry x="255" y="249" width="148" height="22" as="geometry" />
        </mxCell>
        <mxCell id="7RFTTP4zecLHW__Zrt79-15" value="kvCalc -= 100" style="rounded=0;whiteSpace=wrap;html=1;" vertex="1" parent="1glnriD-x2V1oVHe8acs-2">
          <mxGeometry x="87" y="216" width="99" height="20" as="geometry" />
        </mxCell>
        <mxCell id="7RFTTP4zecLHW__Zrt79-16" value="consumoC += 100 * 12" style="rounded=0;whiteSpace=wrap;html=1;" vertex="1" parent="1glnriD-x2V1oVHe8acs-2">
          <mxGeometry x="67" y="248" width="140" height="22" as="geometry" />
        </mxCell>
        <mxCell id="7RFTTP4zecLHW__Zrt79-17" value="consumoC += kvCalc * 15" style="rounded=0;whiteSpace=wrap;html=1;" vertex="1" parent="1glnriD-x2V1oVHe8acs-2">
          <mxGeometry x="65" y="281" width="148" height="22" as="geometry" />
        </mxCell>
        <mxCell id="7RFTTP4zecLHW__Zrt79-113" style="edgeStyle=orthogonalEdgeStyle;shape=connector;rounded=0;orthogonalLoop=1;jettySize=auto;html=1;entryX=0.5;entryY=0;entryDx=0;entryDy=0;labelBackgroundColor=default;strokeColor=default;fontFamily=Helvetica;fontSize=11;fontColor=default;endArrow=none;endFill=0;" edge="1" parent="1glnriD-x2V1oVHe8acs-2" source="7RFTTP4zecLHW__Zrt79-18" target="7RFTTP4zecLHW__Zrt79-21">
          <mxGeometry relative="1" as="geometry" />
        </mxCell>
        <mxCell id="7RFTTP4zecLHW__Zrt79-18" value="consumoC += 100" style="whiteSpace=wrap;html=1;fontSize=11;rounded=0;" vertex="1" parent="1glnriD-x2V1oVHe8acs-2">
          <mxGeometry x="344" y="366" width="100" height="24" as="geometry" />
        </mxCell>
        <mxCell id="7RFTTP4zecLHW__Zrt79-19" value="" style="edgeStyle=orthogonalEdgeStyle;rounded=0;orthogonalLoop=1;jettySize=auto;html=1;endArrow=none;endFill=0;" edge="1" parent="1glnriD-x2V1oVHe8acs-2" source="1glnriD-x2V1oVHe8acs-4" target="7RFTTP4zecLHW__Zrt79-18">
          <mxGeometry relative="1" as="geometry" />
        </mxCell>
        <mxCell id="7RFTTP4zecLHW__Zrt79-22" value="" style="rounded=0;whiteSpace=wrap;html=1;fontFamily=Helvetica;fontSize=11;fontColor=default;" vertex="1" parent="1glnriD-x2V1oVHe8acs-2">
          <mxGeometry x="133" y="456" width="570" height="174" as="geometry" />
        </mxCell>
        <mxCell id="7RFTTP4zecLHW__Zrt79-21" value="locC" style="rhombus;whiteSpace=wrap;html=1;fontFamily=Helvetica;fontSize=11;fontColor=default;" vertex="1" parent="1glnriD-x2V1oVHe8acs-2">
          <mxGeometry x="354" y="416" width="80" height="80" as="geometry" />
        </mxCell>
        <mxCell id="7RFTTP4zecLHW__Zrt79-42" value="" style="rounded=0;whiteSpace=wrap;html=1;fontFamily=Helvetica;fontSize=11;fontColor=default;" vertex="1" parent="1glnriD-x2V1oVHe8acs-2">
          <mxGeometry x="71" y="504" width="120" height="86" as="geometry" />
        </mxCell>
        <mxCell id="7RFTTP4zecLHW__Zrt79-23" value="consumoC &amp;gt; maxC1" style="rhombus;whiteSpace=wrap;html=1;fontFamily=Helvetica;fontSize=11;fontColor=default;" vertex="1" parent="1glnriD-x2V1oVHe8acs-2">
          <mxGeometry x="88" y="468" width="90" height="72" as="geometry" />
        </mxCell>
        <mxCell id="7RFTTP4zecLHW__Zrt79-53" style="edgeStyle=orthogonalEdgeStyle;shape=connector;rounded=0;orthogonalLoop=1;jettySize=auto;html=1;labelBackgroundColor=default;strokeColor=default;fontFamily=Helvetica;fontSize=11;fontColor=default;endArrow=none;endFill=0;" edge="1" parent="1glnriD-x2V1oVHe8acs-2" source="7RFTTP4zecLHW__Zrt79-26">
          <mxGeometry relative="1" as="geometry">
            <mxPoint x="322.1034482758621" y="468.17241379310326" as="targetPoint" />
          </mxGeometry>
        </mxCell>
        <mxCell id="7RFTTP4zecLHW__Zrt79-26" value="&lt;font style=&quot;font-size: 14px;&quot;&gt;2&lt;/font&gt;" style="text;html=1;align=center;verticalAlign=middle;resizable=0;points=[];autosize=1;strokeColor=none;fillColor=none;fontSize=11;fontFamily=Helvetica;fontColor=default;" vertex="1" parent="1glnriD-x2V1oVHe8acs-2">
          <mxGeometry x="307" y="426" width="30" height="30" as="geometry" />
        </mxCell>
        <mxCell id="7RFTTP4zecLHW__Zrt79-28" value="&lt;font style=&quot;font-size: 14px;&quot;&gt;3&lt;/font&gt;" style="text;html=1;align=center;verticalAlign=middle;resizable=0;points=[];autosize=1;strokeColor=none;fillColor=none;fontSize=11;fontFamily=Helvetica;fontColor=default;" vertex="1" parent="1glnriD-x2V1oVHe8acs-2">
          <mxGeometry x="495" y="426" width="30" height="30" as="geometry" />
        </mxCell>
        <mxCell id="7RFTTP4zecLHW__Zrt79-45" value="maxC1 = consumoC" style="whiteSpace=wrap;html=1;fontFamily=Helvetica;fontSize=11;fontColor=default;" vertex="1" parent="1glnriD-x2V1oVHe8acs-2">
          <mxGeometry x="15" y="532" width="102" height="20" as="geometry" />
        </mxCell>
        <mxCell id="7RFTTP4zecLHW__Zrt79-46" value="maxNC1 = nC" style="whiteSpace=wrap;html=1;fontFamily=Helvetica;fontSize=11;fontColor=default;" vertex="1" parent="1glnriD-x2V1oVHe8acs-2">
          <mxGeometry x="15" y="558" width="99" height="20" as="geometry" />
        </mxCell>
        <mxCell id="7RFTTP4zecLHW__Zrt79-57" style="edgeStyle=orthogonalEdgeStyle;shape=connector;rounded=0;orthogonalLoop=1;jettySize=auto;html=1;entryX=0.327;entryY=1.002;entryDx=0;entryDy=0;entryPerimeter=0;labelBackgroundColor=default;strokeColor=default;fontFamily=Helvetica;fontSize=11;fontColor=default;endArrow=none;endFill=0;" edge="1" parent="1glnriD-x2V1oVHe8acs-2" source="7RFTTP4zecLHW__Zrt79-47" target="7RFTTP4zecLHW__Zrt79-22">
          <mxGeometry relative="1" as="geometry" />
        </mxCell>
        <mxCell id="7RFTTP4zecLHW__Zrt79-47" value="" style="rounded=0;whiteSpace=wrap;html=1;fontFamily=Helvetica;fontSize=11;fontColor=default;" vertex="1" parent="1glnriD-x2V1oVHe8acs-2">
          <mxGeometry x="260" y="504" width="120" height="80" as="geometry" />
        </mxCell>
        <mxCell id="7RFTTP4zecLHW__Zrt79-48" value="consumoC &amp;gt; maxC2" style="rhombus;whiteSpace=wrap;html=1;fontFamily=Helvetica;fontSize=11;fontColor=default;" vertex="1" parent="1glnriD-x2V1oVHe8acs-2">
          <mxGeometry x="277" y="468" width="90" height="72" as="geometry" />
        </mxCell>
        <mxCell id="7RFTTP4zecLHW__Zrt79-49" value="maxC2 = consumoC" style="whiteSpace=wrap;html=1;fontFamily=Helvetica;fontSize=11;fontColor=default;" vertex="1" parent="1glnriD-x2V1oVHe8acs-2">
          <mxGeometry x="204" y="532" width="102" height="20" as="geometry" />
        </mxCell>
        <mxCell id="7RFTTP4zecLHW__Zrt79-50" value="maxNC2 = nC" style="whiteSpace=wrap;html=1;fontFamily=Helvetica;fontSize=11;fontColor=default;" vertex="1" parent="1glnriD-x2V1oVHe8acs-2">
          <mxGeometry x="204" y="558" width="99" height="20" as="geometry" />
        </mxCell>
        <mxCell id="7RFTTP4zecLHW__Zrt79-58" style="edgeStyle=orthogonalEdgeStyle;shape=connector;rounded=0;orthogonalLoop=1;jettySize=auto;html=1;labelBackgroundColor=default;strokeColor=default;fontFamily=Helvetica;fontSize=11;fontColor=default;endArrow=none;endFill=0;" edge="1" parent="1glnriD-x2V1oVHe8acs-2">
          <mxGeometry relative="1" as="geometry">
            <mxPoint x="521.1034482758621" y="467.8824137931033" as="targetPoint" />
            <mxPoint x="521" y="455.71000000000004" as="sourcePoint" />
          </mxGeometry>
        </mxCell>
        <mxCell id="7RFTTP4zecLHW__Zrt79-66" style="edgeStyle=orthogonalEdgeStyle;shape=connector;rounded=0;orthogonalLoop=1;jettySize=auto;html=1;entryX=0.678;entryY=1;entryDx=0;entryDy=0;entryPerimeter=0;labelBackgroundColor=default;strokeColor=default;fontFamily=Helvetica;fontSize=11;fontColor=default;endArrow=none;endFill=0;" edge="1" parent="1glnriD-x2V1oVHe8acs-2" source="7RFTTP4zecLHW__Zrt79-60" target="7RFTTP4zecLHW__Zrt79-22">
          <mxGeometry relative="1" as="geometry" />
        </mxCell>
        <mxCell id="7RFTTP4zecLHW__Zrt79-60" value="" style="rounded=0;whiteSpace=wrap;html=1;fontFamily=Helvetica;fontSize=11;fontColor=default;" vertex="1" parent="1glnriD-x2V1oVHe8acs-2">
          <mxGeometry x="459" y="503.71000000000004" width="120" height="80" as="geometry" />
        </mxCell>
        <mxCell id="7RFTTP4zecLHW__Zrt79-61" value="consumoC &amp;gt; maxC3" style="rhombus;whiteSpace=wrap;html=1;fontFamily=Helvetica;fontSize=11;fontColor=default;" vertex="1" parent="1glnriD-x2V1oVHe8acs-2">
          <mxGeometry x="476" y="467.71000000000004" width="90" height="72" as="geometry" />
        </mxCell>
        <mxCell id="7RFTTP4zecLHW__Zrt79-62" value="maxC3 = consumoC" style="whiteSpace=wrap;html=1;fontFamily=Helvetica;fontSize=11;fontColor=default;" vertex="1" parent="1glnriD-x2V1oVHe8acs-2">
          <mxGeometry x="403" y="531.71" width="102" height="20" as="geometry" />
        </mxCell>
        <mxCell id="7RFTTP4zecLHW__Zrt79-63" value="maxNC3 = nC" style="whiteSpace=wrap;html=1;fontFamily=Helvetica;fontSize=11;fontColor=default;" vertex="1" parent="1glnriD-x2V1oVHe8acs-2">
          <mxGeometry x="403" y="557.71" width="99" height="20" as="geometry" />
        </mxCell>
        <mxCell id="7RFTTP4zecLHW__Zrt79-72" value="tLoc1 += consumoC" style="rounded=0;whiteSpace=wrap;html=1;" vertex="1" parent="1glnriD-x2V1oVHe8acs-2">
          <mxGeometry x="71" y="600" width="122" height="20" as="geometry" />
        </mxCell>
        <mxCell id="7RFTTP4zecLHW__Zrt79-73" value="tLoc2 += consumoC" style="rounded=0;whiteSpace=wrap;html=1;" vertex="1" parent="1glnriD-x2V1oVHe8acs-2">
          <mxGeometry x="259" y="600" width="122" height="20" as="geometry" />
        </mxCell>
        <mxCell id="7RFTTP4zecLHW__Zrt79-110" value="tLoc3 += consumoC" style="rounded=0;whiteSpace=wrap;html=1;" vertex="1" parent="1glnriD-x2V1oVHe8acs-2">
          <mxGeometry x="457" y="600" width="122" height="20" as="geometry" />
        </mxCell>
        <mxCell id="7RFTTP4zecLHW__Zrt79-25" value="&lt;b&gt;&lt;font style=&quot;font-size: 14px;&quot;&gt;1&lt;/font&gt;&lt;/b&gt;" style="text;html=1;align=center;verticalAlign=middle;resizable=0;points=[];autosize=1;strokeColor=none;fillColor=none;fontSize=11;fontFamily=Helvetica;fontColor=default;" vertex="1" parent="1glnriD-x2V1oVHe8acs-2">
          <mxGeometry x="118" y="424.5" width="30" height="30" as="geometry" />
        </mxCell>
        <mxCell id="7RFTTP4zecLHW__Zrt79-115" value="" style="rounded=0;whiteSpace=wrap;html=1;fontFamily=Helvetica;fontSize=11;fontColor=default;" vertex="1" parent="1glnriD-x2V1oVHe8acs-2">
          <mxGeometry x="250" y="684" width="268.5" height="146" as="geometry" />
        </mxCell>
        <mxCell id="7RFTTP4zecLHW__Zrt79-125" style="edgeStyle=orthogonalEdgeStyle;shape=connector;rounded=0;orthogonalLoop=1;jettySize=auto;html=1;entryX=0.464;entryY=1.015;entryDx=0;entryDy=0;entryPerimeter=0;labelBackgroundColor=default;strokeColor=default;fontFamily=Helvetica;fontSize=11;fontColor=default;endArrow=none;endFill=0;" edge="1" parent="1glnriD-x2V1oVHe8acs-2" source="7RFTTP4zecLHW__Zrt79-114" target="7RFTTP4zecLHW__Zrt79-22">
          <mxGeometry relative="1" as="geometry" />
        </mxCell>
        <mxCell id="7RFTTP4zecLHW__Zrt79-114" value="minNC == 0" style="rhombus;whiteSpace=wrap;html=1;fontFamily=Helvetica;fontSize=11;fontColor=default;" vertex="1" parent="1glnriD-x2V1oVHe8acs-2">
          <mxGeometry x="358" y="649" width="80" height="71" as="geometry" />
        </mxCell>
        <mxCell id="7RFTTP4zecLHW__Zrt79-117" value="" style="whiteSpace=wrap;html=1;fontFamily=Helvetica;fontSize=11;fontColor=default;" vertex="1" parent="1glnriD-x2V1oVHe8acs-2">
          <mxGeometry x="188" y="727" width="120" height="73" as="geometry" />
        </mxCell>
        <mxCell id="7RFTTP4zecLHW__Zrt79-116" value="kvC != 0" style="rhombus;whiteSpace=wrap;html=1;fontFamily=Helvetica;fontSize=11;fontColor=default;" vertex="1" parent="1glnriD-x2V1oVHe8acs-2">
          <mxGeometry x="210" y="693" width="80" height="67" as="geometry" />
        </mxCell>
        <mxCell id="7RFTTP4zecLHW__Zrt79-118" value="minNC = nC" style="whiteSpace=wrap;html=1;fontFamily=Helvetica;fontSize=11;fontColor=default;" vertex="1" parent="1glnriD-x2V1oVHe8acs-2">
          <mxGeometry x="146" y="746" width="80" height="20" as="geometry" />
        </mxCell>
        <mxCell id="7RFTTP4zecLHW__Zrt79-119" value="minKvC = kvC" style="whiteSpace=wrap;html=1;fontFamily=Helvetica;fontSize=11;fontColor=default;" vertex="1" parent="1glnriD-x2V1oVHe8acs-2">
          <mxGeometry x="146" y="771" width="94" height="20" as="geometry" />
        </mxCell>
        <mxCell id="7RFTTP4zecLHW__Zrt79-120" value="" style="whiteSpace=wrap;html=1;fontFamily=Helvetica;fontSize=11;fontColor=default;" vertex="1" parent="1glnriD-x2V1oVHe8acs-2">
          <mxGeometry x="456" y="733.5" width="120" height="73" as="geometry" />
        </mxCell>
        <mxCell id="7RFTTP4zecLHW__Zrt79-121" value="kvC &amp;lt; minKvC" style="rhombus;whiteSpace=wrap;html=1;fontFamily=Helvetica;fontSize=11;fontColor=default;" vertex="1" parent="1glnriD-x2V1oVHe8acs-2">
          <mxGeometry x="478" y="699.5" width="80" height="67" as="geometry" />
        </mxCell>
        <mxCell id="7RFTTP4zecLHW__Zrt79-122" value="minNC = nC" style="whiteSpace=wrap;html=1;fontFamily=Helvetica;fontSize=11;fontColor=default;" vertex="1" parent="1glnriD-x2V1oVHe8acs-2">
          <mxGeometry x="414" y="752.5" width="80" height="20" as="geometry" />
        </mxCell>
        <mxCell id="7RFTTP4zecLHW__Zrt79-123" value="minKvC = kvC" style="whiteSpace=wrap;html=1;fontFamily=Helvetica;fontSize=11;fontColor=default;" vertex="1" parent="1glnriD-x2V1oVHe8acs-2">
          <mxGeometry x="414" y="777.5" width="94" height="20" as="geometry" />
        </mxCell>
        <mxCell id="7RFTTP4zecLHW__Zrt79-127" style="edgeStyle=orthogonalEdgeStyle;shape=connector;rounded=0;orthogonalLoop=1;jettySize=auto;html=1;entryX=0.55;entryY=1.011;entryDx=0;entryDy=0;entryPerimeter=0;labelBackgroundColor=default;strokeColor=default;fontFamily=Helvetica;fontSize=11;fontColor=default;endArrow=none;endFill=0;" edge="1" parent="1glnriD-x2V1oVHe8acs-2" source="7RFTTP4zecLHW__Zrt79-126" target="7RFTTP4zecLHW__Zrt79-115">
          <mxGeometry relative="1" as="geometry" />
        </mxCell>
        <mxCell id="7RFTTP4zecLHW__Zrt79-126" value="nC, locC, kvC" style="shape=trapezoid;perimeter=trapezoidPerimeter;whiteSpace=wrap;html=1;fixedSize=1;direction=west;" vertex="1" parent="1glnriD-x2V1oVHe8acs-2">
          <mxGeometry x="313" y="859" width="170" height="40" as="geometry" />
        </mxCell>
        <mxCell id="1glnriD-x2V1oVHe8acs-14" value="&lt;h1&gt;Ejercicio 20&lt;/h1&gt;&lt;div&gt;&lt;div&gt;20)&lt;br&gt;Hacer un programa para ingresar los consumos de electricidad de los clientes de una&lt;/div&gt;&lt;div&gt;empresa. Cada registro contiene los siguientes datos:&lt;/div&gt;&lt;div&gt;- Número de cliente&lt;/div&gt;&lt;div&gt;- Localidad del cliente (1, 2 o 3)&lt;/div&gt;&lt;div&gt;- Kilovatios consumidos&lt;/div&gt;&lt;div&gt;El lote finaliza con un registro con número de cliente igual a cero.&lt;/div&gt;&lt;div&gt;El precio es escalonado según la siguiente escala:&lt;/div&gt;&lt;div&gt;$ 10 por kilovatio por los primeros 100 kilovatios de consumo.&lt;/div&gt;&lt;div&gt;$ 12 por kilovatio por el consumo de 101 a 200 kilovatios.&lt;/div&gt;&lt;div&gt;$ 15 por kilovatio por el consumo de 201 kilovatios en adelante.&lt;/div&gt;&lt;div&gt;Además hay un cargo fijo de $ 100.&lt;/div&gt;&lt;div&gt;Ejemplo 1: Consumo de 55 kilovatios, se calculará: $ 10 x 55 + $ 100= $ 650&lt;/div&gt;&lt;div&gt;Ejemplo 2: Consumo de 125 kilovatios, se calculará: $ 10 x 100 + $ 12 x 25 + $ 100=$ 1400&lt;/div&gt;&lt;div&gt;Ejemplo 3: Consumo de 250 kilovatios, se calculará: $10 x 100+ $12 x 100 + $15 x 50 + $100= $ 3050&lt;/div&gt;&lt;div&gt;Ejemplo 3: Consumo de 0 kilovatios, se calculará: $ 10 x 0 + $ 100= $ 100&lt;/div&gt;&lt;div&gt;&lt;br&gt;&lt;/div&gt;&lt;div&gt;Se pide determinar e informar:&lt;/div&gt;&lt;div&gt;a) El número de cliente que tuvo la mayor cantidad de Kilovatios consumidos para cada&lt;/div&gt;&lt;div&gt;una de las 3 localidades. Se listan 3 resultados, uno para cada una de las 3 localidades&lt;/div&gt;&lt;div&gt;b) El total de recaudación para cada una de las 3 localidades. Se listan 3 resultados, uno&lt;/div&gt;&lt;div&gt;para cada una de las 3 localidades&lt;/div&gt;&lt;div&gt;c) El número de cliente que tuvo la menor cantidad de Kilovatios consumidos excluyendo a&lt;/div&gt;&lt;div&gt;los clientes que tuvieron Kilovatios consumidos con valor cero. Se lista 1 resultado&lt;/div&gt;&lt;/div&gt;&lt;div&gt;&lt;br&gt;&lt;/div&gt;&lt;br style=&quot;box-sizing: border-box;&quot; role=&quot;presentation&quot;&gt;&lt;span style=&quot;box-sizing: border-box; color: transparent; position: absolute; cursor: text; transform-origin: left top; top: 0px; height: 0px; font-family: sans-serif; font-size: medium; background-color: rgb(200, 200, 200);&quot; id=&quot;page10R_mcid19&quot; class=&quot;markedContent&quot;&gt;&lt;/span&gt;" style="text;html=1;strokeColor=none;fillColor=none;spacing=5;spacingTop=-20;whiteSpace=wrap;overflow=hidden;rounded=0;" vertex="1" parent="1glnriD-x2V1oVHe8acs-1">
          <mxGeometry x="9" y="-420" width="820" height="399" as="geometry" />
        </mxCell>
        <mxCell id="1glnriD-x2V1oVHe8acs-15" value="Programación I - Guia 4 - Ciclos&lt;br&gt;&lt;div style=&quot;text-align: left;&quot;&gt;&lt;span style=&quot;background-color: initial;&quot;&gt;Facundo Masino&lt;/span&gt;&lt;/div&gt;" style="text;html=1;strokeColor=none;fillColor=none;align=center;verticalAlign=middle;whiteSpace=wrap;rounded=0;fontSize=11;fontFamily=Helvetica;fontColor=default;" vertex="1" parent="1glnriD-x2V1oVHe8acs-1">
          <mxGeometry x="658" y="11" width="160" height="30" as="geometry" />
        </mxCell>
        <mxCell id="7RFTTP4zecLHW__Zrt79-67" style="edgeStyle=orthogonalEdgeStyle;shape=connector;rounded=0;orthogonalLoop=1;jettySize=auto;html=1;entryX=0.5;entryY=1;entryDx=0;entryDy=0;labelBackgroundColor=default;strokeColor=default;fontFamily=Helvetica;fontSize=11;fontColor=default;endArrow=none;endFill=0;" edge="1" parent="1glnriD-x2V1oVHe8acs-1" source="1glnriD-x2V1oVHe8acs-18" target="1glnriD-x2V1oVHe8acs-20">
          <mxGeometry relative="1" as="geometry" />
        </mxCell>
        <mxCell id="1glnriD-x2V1oVHe8acs-18" value="INICIO" style="ellipse;whiteSpace=wrap;html=1;aspect=fixed;fontFamily=Helvetica;fontSize=11;fontColor=default;" vertex="1" parent="1glnriD-x2V1oVHe8acs-1">
          <mxGeometry x="384" y="7" width="80" height="80" as="geometry" />
        </mxCell>
        <mxCell id="7RFTTP4zecLHW__Zrt79-68" style="edgeStyle=orthogonalEdgeStyle;shape=connector;rounded=0;orthogonalLoop=1;jettySize=auto;html=1;entryX=0.5;entryY=0;entryDx=0;entryDy=0;labelBackgroundColor=default;strokeColor=default;fontFamily=Helvetica;fontSize=11;fontColor=default;endArrow=none;endFill=0;" edge="1" parent="1glnriD-x2V1oVHe8acs-1" source="1glnriD-x2V1oVHe8acs-20" target="1glnriD-x2V1oVHe8acs-22">
          <mxGeometry relative="1" as="geometry" />
        </mxCell>
        <mxCell id="1glnriD-x2V1oVHe8acs-20" value="nC, locC, kvC" style="shape=trapezoid;perimeter=trapezoidPerimeter;whiteSpace=wrap;html=1;fixedSize=1;direction=west;" vertex="1" parent="1glnriD-x2V1oVHe8acs-1">
          <mxGeometry x="340" y="93" width="170" height="40" as="geometry" />
        </mxCell>
        <mxCell id="7RFTTP4zecLHW__Zrt79-31" style="edgeStyle=orthogonalEdgeStyle;shape=connector;rounded=0;orthogonalLoop=1;jettySize=auto;html=1;entryX=0.5;entryY=0;entryDx=0;entryDy=0;labelBackgroundColor=default;strokeColor=default;fontFamily=Helvetica;fontSize=11;fontColor=default;endArrow=none;endFill=0;" edge="1" parent="1glnriD-x2V1oVHe8acs-1" target="7RFTTP4zecLHW__Zrt79-30">
          <mxGeometry relative="1" as="geometry">
            <mxPoint x="424.79999999999995" y="207" as="sourcePoint" />
          </mxGeometry>
        </mxCell>
        <mxCell id="1glnriD-x2V1oVHe8acs-22" value="maxNC1 = 0" style="rounded=0;whiteSpace=wrap;html=1;" vertex="1" parent="1glnriD-x2V1oVHe8acs-1">
          <mxGeometry x="369.75" y="188" width="110" height="20" as="geometry" />
        </mxCell>
        <mxCell id="7RFTTP4zecLHW__Zrt79-34" style="edgeStyle=orthogonalEdgeStyle;shape=connector;rounded=0;orthogonalLoop=1;jettySize=auto;html=1;entryX=0.5;entryY=0;entryDx=0;entryDy=0;labelBackgroundColor=default;strokeColor=default;fontFamily=Helvetica;fontSize=11;fontColor=default;endArrow=none;endFill=0;" edge="1" parent="1glnriD-x2V1oVHe8acs-1" source="7RFTTP4zecLHW__Zrt79-30" target="7RFTTP4zecLHW__Zrt79-32">
          <mxGeometry relative="1" as="geometry" />
        </mxCell>
        <mxCell id="7RFTTP4zecLHW__Zrt79-30" value="maxC1 = 0" style="rounded=0;whiteSpace=wrap;html=1;" vertex="1" parent="1glnriD-x2V1oVHe8acs-1">
          <mxGeometry x="369.75" y="213" width="110" height="20" as="geometry" />
        </mxCell>
        <mxCell id="7RFTTP4zecLHW__Zrt79-35" style="edgeStyle=orthogonalEdgeStyle;shape=connector;rounded=0;orthogonalLoop=1;jettySize=auto;html=1;entryX=0.5;entryY=0;entryDx=0;entryDy=0;labelBackgroundColor=default;strokeColor=default;fontFamily=Helvetica;fontSize=11;fontColor=default;endArrow=none;endFill=0;" edge="1" parent="1glnriD-x2V1oVHe8acs-1" source="7RFTTP4zecLHW__Zrt79-32" target="7RFTTP4zecLHW__Zrt79-33">
          <mxGeometry relative="1" as="geometry" />
        </mxCell>
        <mxCell id="7RFTTP4zecLHW__Zrt79-32" value="maxNC2 = 0" style="rounded=0;whiteSpace=wrap;html=1;" vertex="1" parent="1glnriD-x2V1oVHe8acs-1">
          <mxGeometry x="370" y="237" width="110" height="20" as="geometry" />
        </mxCell>
        <mxCell id="7RFTTP4zecLHW__Zrt79-37" style="edgeStyle=orthogonalEdgeStyle;shape=connector;rounded=0;orthogonalLoop=1;jettySize=auto;html=1;entryX=0.5;entryY=0;entryDx=0;entryDy=0;labelBackgroundColor=default;strokeColor=default;fontFamily=Helvetica;fontSize=11;fontColor=default;endArrow=none;endFill=0;" edge="1" parent="1glnriD-x2V1oVHe8acs-1" source="7RFTTP4zecLHW__Zrt79-33" target="7RFTTP4zecLHW__Zrt79-36">
          <mxGeometry relative="1" as="geometry" />
        </mxCell>
        <mxCell id="7RFTTP4zecLHW__Zrt79-33" value="maxC2 = 0" style="rounded=0;whiteSpace=wrap;html=1;" vertex="1" parent="1glnriD-x2V1oVHe8acs-1">
          <mxGeometry x="370" y="262" width="110" height="20" as="geometry" />
        </mxCell>
        <mxCell id="7RFTTP4zecLHW__Zrt79-36" value="maxNC3 = 0" style="rounded=0;whiteSpace=wrap;html=1;" vertex="1" parent="1glnriD-x2V1oVHe8acs-1">
          <mxGeometry x="370" y="286" width="110" height="20" as="geometry" />
        </mxCell>
        <mxCell id="7RFTTP4zecLHW__Zrt79-41" value="maxC3 = 0" style="rounded=0;whiteSpace=wrap;html=1;" vertex="1" parent="1glnriD-x2V1oVHe8acs-1">
          <mxGeometry x="370" y="310" width="110" height="20" as="geometry" />
        </mxCell>
        <mxCell id="7RFTTP4zecLHW__Zrt79-69" value="tLoc1 = 0" style="rounded=0;whiteSpace=wrap;html=1;" vertex="1" parent="1glnriD-x2V1oVHe8acs-1">
          <mxGeometry x="369.75" y="334" width="110" height="20" as="geometry" />
        </mxCell>
        <mxCell id="7RFTTP4zecLHW__Zrt79-70" value="tLoc2 = 0" style="rounded=0;whiteSpace=wrap;html=1;" vertex="1" parent="1glnriD-x2V1oVHe8acs-1">
          <mxGeometry x="370" y="359" width="110" height="20" as="geometry" />
        </mxCell>
        <mxCell id="7RFTTP4zecLHW__Zrt79-71" value="tLoc3 = 0" style="rounded=0;whiteSpace=wrap;html=1;" vertex="1" parent="1glnriD-x2V1oVHe8acs-1">
          <mxGeometry x="370" y="384" width="110" height="20" as="geometry" />
        </mxCell>
        <mxCell id="7RFTTP4zecLHW__Zrt79-111" value="minNC = 0" style="rounded=0;whiteSpace=wrap;html=1;" vertex="1" parent="1glnriD-x2V1oVHe8acs-1">
          <mxGeometry x="369" y="141" width="110" height="20" as="geometry" />
        </mxCell>
        <mxCell id="7RFTTP4zecLHW__Zrt79-112" value="minKvC = 0" style="rounded=0;whiteSpace=wrap;html=1;" vertex="1" parent="1glnriD-x2V1oVHe8acs-1">
          <mxGeometry x="369" y="164" width="110" height="20" as="geometry" />
        </mxCell>
        <mxCell id="7RFTTP4zecLHW__Zrt79-131" style="edgeStyle=orthogonalEdgeStyle;shape=connector;rounded=0;orthogonalLoop=1;jettySize=auto;html=1;labelBackgroundColor=default;strokeColor=default;fontFamily=Helvetica;fontSize=11;fontColor=default;endArrow=none;endFill=0;" edge="1" parent="1glnriD-x2V1oVHe8acs-1" source="7RFTTP4zecLHW__Zrt79-128">
          <mxGeometry relative="1" as="geometry">
            <mxPoint x="450" y="1330" as="targetPoint" />
          </mxGeometry>
        </mxCell>
        <mxCell id="7RFTTP4zecLHW__Zrt79-135" style="edgeStyle=orthogonalEdgeStyle;shape=connector;rounded=0;orthogonalLoop=1;jettySize=auto;html=1;entryX=0.5;entryY=0;entryDx=0;entryDy=0;labelBackgroundColor=default;strokeColor=default;fontFamily=Helvetica;fontSize=11;fontColor=default;endArrow=none;endFill=0;" edge="1" parent="1glnriD-x2V1oVHe8acs-1" source="7RFTTP4zecLHW__Zrt79-128" target="7RFTTP4zecLHW__Zrt79-129">
          <mxGeometry relative="1" as="geometry" />
        </mxCell>
        <mxCell id="7RFTTP4zecLHW__Zrt79-128" value="&quot;Cliente mayor kv Loc. 1: &quot;, maxNC1,&lt;br&gt;&quot;Cliente mayor kv Loc. 2:&quot;, maxNC2,&lt;br&gt;&quot;Cliente&amp;nbsp; mayor kv Loc. 3:&quot;, maxNC3" style="shape=trapezoid;perimeter=trapezoidPerimeter;whiteSpace=wrap;html=1;fixedSize=1;fontFamily=Helvetica;fontSize=11;fontColor=default;" vertex="1" parent="1glnriD-x2V1oVHe8acs-1">
          <mxGeometry x="235" y="1340" width="430" height="47" as="geometry" />
        </mxCell>
        <mxCell id="7RFTTP4zecLHW__Zrt79-129" value="&quot;Recaudación Total: &quot;,&lt;br&gt;&quot;Loc. 1: &quot;, tLoc1,&lt;br&gt;&quot;Loc. 2: &quot;, tLoc2,&lt;br&gt;&quot;Loc. 3: &quot;, tLoc3" style="shape=trapezoid;perimeter=trapezoidPerimeter;whiteSpace=wrap;html=1;fixedSize=1;fontFamily=Helvetica;fontSize=11;fontColor=default;" vertex="1" parent="1glnriD-x2V1oVHe8acs-1">
          <mxGeometry x="235" y="1400" width="430" height="60" as="geometry" />
        </mxCell>
        <mxCell id="7RFTTP4zecLHW__Zrt79-133" style="edgeStyle=orthogonalEdgeStyle;shape=connector;rounded=0;orthogonalLoop=1;jettySize=auto;html=1;entryX=0.5;entryY=1;entryDx=0;entryDy=0;labelBackgroundColor=default;strokeColor=default;fontFamily=Helvetica;fontSize=11;fontColor=default;endArrow=none;endFill=0;" edge="1" parent="1glnriD-x2V1oVHe8acs-1" source="7RFTTP4zecLHW__Zrt79-130" target="7RFTTP4zecLHW__Zrt79-129">
          <mxGeometry relative="1" as="geometry" />
        </mxCell>
        <mxCell id="7RFTTP4zecLHW__Zrt79-130" value="&quot;Cliente menor kV consumidos: &quot;, minNC" style="shape=trapezoid;perimeter=trapezoidPerimeter;whiteSpace=wrap;html=1;fixedSize=1;fontFamily=Helvetica;fontSize=11;fontColor=default;" vertex="1" parent="1glnriD-x2V1oVHe8acs-1">
          <mxGeometry x="235" y="1480" width="430" height="41" as="geometry" />
        </mxCell>
        <mxCell id="7RFTTP4zecLHW__Zrt79-137" style="edgeStyle=orthogonalEdgeStyle;shape=connector;rounded=0;orthogonalLoop=1;jettySize=auto;html=1;entryX=0.5;entryY=1;entryDx=0;entryDy=0;labelBackgroundColor=default;strokeColor=default;fontFamily=Helvetica;fontSize=11;fontColor=default;endArrow=none;endFill=0;" edge="1" parent="1glnriD-x2V1oVHe8acs-1" source="7RFTTP4zecLHW__Zrt79-136" target="7RFTTP4zecLHW__Zrt79-130">
          <mxGeometry relative="1" as="geometry" />
        </mxCell>
        <mxCell id="7RFTTP4zecLHW__Zrt79-136" value="Fin" style="ellipse;whiteSpace=wrap;html=1;aspect=fixed;fontFamily=Helvetica;fontSize=11;fontColor=default;" vertex="1" parent="1glnriD-x2V1oVHe8acs-1">
          <mxGeometry x="425" y="1540" width="50" height="50" as="geometry" />
        </mxCell>
      </root>
    </mxGraphModel>
  </diagram>
</mxfile>
